<?xml version="1.0" encoding="UTF-8"?>
<svg version="1.1" xmlns="http://www.w3.org/2000/svg" width="500" height="500">
<path d="M0 0 C0.7213916 0.21527344 1.4427832 0.43054688 2.18603516 0.65234375 C12.90275114 3.91505496 23.00753992 7.9502198 33 13 C33.60908203 13.30131836 34.21816406 13.60263672 34.84570312 13.91308594 C73.36409721 33.05077385 104.17811528 65.9864604 122 105 C122.53109375 106.13566406 123.0621875 107.27132812 123.609375 108.44140625 C133.0093259 129.34902899 139.0629652 152.49019375 139.203125 175.48828125 C139.21013931 176.26517303 139.21715363 177.04206482 139.22438049 177.84249878 C139.24176732 180.332559 139.24823173 182.82238133 139.25 185.3125 C139.25067474 186.163815 139.25134949 187.01513 139.25204468 187.89224243 C139.23617102 200.4895471 138.84615674 212.6768355 136 225 C135.82839355 225.77182617 135.65678711 226.54365234 135.47998047 227.33886719 C131.35538955 245.48116971 124.86033427 262.65390011 116 279 C115.43539063 280.04542969 114.87078125 281.09085937 114.2890625 282.16796875 C97.8543549 311.372367 74.11345814 334.19402301 46 352 C44.99324219 352.63808594 43.98648437 353.27617187 42.94921875 353.93359375 C23.21036873 365.92648098 0.64386933 373.04377044 -22 377 C-23.79050781 377.33837891 -23.79050781 377.33837891 -25.6171875 377.68359375 C-46.79771999 381.04374387 -70.02917576 380.18324017 -91 376 C-91.7101123 375.86609863 -92.42022461 375.73219727 -93.15185547 375.59423828 C-125.87306165 369.3002315 -155.97244153 353.84486317 -181 332 C-181.50595703 331.56107422 -182.01191406 331.12214844 -182.53320312 330.66992188 C-220.04336195 297.89980742 -243.40341201 250.28146627 -246.859375 200.61181641 C-249.98061082 142.64136366 -230.24888589 92.86116702 -192 50 C-165.99066571 21.41079247 -124.88192803 0.78492497 -87 -5 C-85.27523437 -5.30164063 -85.27523437 -5.30164063 -83.515625 -5.609375 C-56.05072401 -9.69050487 -26.59121864 -7.93651588 0 0 Z M-181 154 C-181 174.46 -181 194.92 -181 216 C-157.1493622 218.18258061 -157.1493622 218.18258061 -134.35546875 210.5 C-129.91663292 204.79928777 -129.19546284 200.0755186 -130 193 C-131.99960536 189.07220376 -134.16232474 186.22832757 -138 184 C-138.99 184 -139.98 184 -141 184 C-141 183.34 -141 182.68 -141 182 C-140.4225 181.79375 -139.845 181.5875 -139.25 181.375 C-135.95335856 179.36038579 -134.73221188 177.46442376 -133 174 C-132.15527163 169.65465998 -131.97764839 165.79736009 -134.2109375 161.87109375 C-138.49354233 156.66457671 -142.33946008 154.90063905 -149 154 C-151.52761179 153.92070304 -154.05710238 153.89222841 -156.5859375 153.90234375 C-157.87032715 153.90484131 -159.1547168 153.90733887 -160.47802734 153.90991211 C-162.90202881 153.92356812 -162.90202881 153.92356812 -165.375 153.9375 C-173.109375 153.9684375 -173.109375 153.9684375 -181 154 Z " fill="#FEB652" transform="translate(311,77)"/>
<path d="M0 0 C6.19610002 3.29637992 10.24834898 8.92519221 12.83203125 15.31640625 C12.87810776 16.98243588 12.88540465 18.65059442 12.83203125 20.31640625 C14.09660156 20.28160156 15.36117187 20.24679688 16.6640625 20.2109375 C18.32420548 20.18279948 19.98436281 20.15549934 21.64453125 20.12890625 C22.47791016 20.10376953 23.31128906 20.07863281 24.16992188 20.05273438 C25.37358398 20.03823242 25.37358398 20.03823242 26.6015625 20.0234375 C27.70914917 19.99987183 27.70914917 19.99987183 28.83911133 19.97583008 C30.83203125 20.31640625 30.83203125 20.31640625 32.50292969 21.37768555 C34.46358838 24.23763974 34.81969481 27.26971029 35.328125 30.62890625 C35.44973495 31.37309814 35.57134491 32.11729004 35.69664001 32.8840332 C37.11282338 41.72200657 38.32273004 50.59299771 39.51196289 59.46386719 C39.89416518 62.31367673 40.28162414 65.16273397 40.66992188 68.01171875 C41.29073678 72.5790687 41.89071813 77.14888129 42.48516846 81.71972656 C42.82627028 84.27327854 43.19358174 86.82193131 43.56591797 89.37109375 C43.77877383 90.91530214 43.99120088 92.45956972 44.203125 94.00390625 C44.31237808 94.70491455 44.42163116 95.40592285 44.53419495 96.12817383 C45.15852711 100.87302404 45.15852711 100.87302404 43.59596348 102.9949894 C41.43297664 104.61535055 40.33258896 104.69325439 37.65037537 104.69735718 C36.79931213 104.70581665 35.9482489 104.71427612 35.07139587 104.72299194 C33.67565086 104.7138829 33.67565086 104.7138829 32.25170898 104.70458984 C30.7782048 104.71247528 30.7782048 104.71247528 29.27493286 104.72052002 C26.02166943 104.73374473 22.76889357 104.7249737 19.515625 104.71484375 C17.26025803 104.71686361 15.0048917 104.7197743 12.74952698 104.72354126 C8.02086168 104.72796784 3.29236627 104.7215221 -1.4362793 104.70751953 C-7.50860629 104.69041783 -13.58053581 104.70027319 -19.65284824 104.71823692 C-24.31014523 104.72905732 -28.96734736 104.7256366 -33.62464714 104.71785355 C-35.86423731 104.71584722 -38.10383598 104.71832589 -40.34341621 104.72529221 C-43.46819126 104.73287902 -46.59231472 104.72134166 -49.71704102 104.70458984 C-50.64956192 104.71066254 -51.58208282 104.71673523 -52.54286194 104.72299194 C-53.39110535 104.71453247 -54.23934875 104.706073 -55.11329651 104.69735718 C-55.8523652 104.6962261 -56.59143389 104.69509502 -57.3528986 104.69392967 C-59.16796875 104.31640625 -59.16796875 104.31640625 -61.16796875 101.31640625 C-61.35909926 91.25907058 -59.50671254 81.13343444 -57.85546875 71.25390625 C-57.40100307 68.4682818 -56.9531673 65.6816258 -56.5078125 62.89453125 C-56.39519073 62.19116135 -56.28256897 61.48779144 -56.16653442 60.7631073 C-54.73784047 51.74123629 -53.57645432 42.68349318 -52.42456055 33.62280273 C-52.272854 32.44274658 -52.12114746 31.26269043 -51.96484375 30.046875 C-51.83432617 29.00942139 -51.70380859 27.97196777 -51.56933594 26.90307617 C-51.16796875 24.31640625 -51.16796875 24.31640625 -50.16796875 21.31640625 C-47.81944347 20.14214361 -46.4302281 20.20132452 -43.81640625 20.21875 C-42.965625 20.22197266 -42.11484375 20.22519531 -41.23828125 20.22851562 C-39.90410156 20.24108398 -39.90410156 20.24108398 -38.54296875 20.25390625 C-37.64578125 20.25841797 -36.74859375 20.26292969 -35.82421875 20.26757812 C-33.60540227 20.27938034 -31.38671857 20.2958447 -29.16796875 20.31640625 C-29.12115967 19.71094971 -29.07435059 19.10549316 -29.02612305 18.48168945 C-28.95304932 17.68077881 -28.87997559 16.87986816 -28.8046875 16.0546875 C-28.73725342 15.26360596 -28.66981934 14.47252441 -28.6003418 13.6574707 C-27.61741992 8.33548435 -24.21234018 5.11012854 -20.04296875 1.94140625 C-14.05490841 -1.44314959 -6.61756133 -2.08661844 0 0 Z M-33.16796875 32.31640625 C-33.16796875 52.77640625 -33.16796875 73.23640625 -33.16796875 94.31640625 C-9.31733095 96.49898686 -9.31733095 96.49898686 13.4765625 88.81640625 C17.91539833 83.11569402 18.63656841 78.39192485 17.83203125 71.31640625 C15.83242589 67.38861001 13.66970651 64.54473382 9.83203125 62.31640625 C8.84203125 62.31640625 7.85203125 62.31640625 6.83203125 62.31640625 C6.83203125 61.65640625 6.83203125 60.99640625 6.83203125 60.31640625 C7.40953125 60.11015625 7.98703125 59.90390625 8.58203125 59.69140625 C11.87867269 57.67679204 13.09981937 55.78083001 14.83203125 52.31640625 C15.67675962 47.97106623 15.85438286 44.11376634 13.62109375 40.1875 C9.33848892 34.98098296 5.49257117 33.2170453 -1.16796875 32.31640625 C-3.69558054 32.23710929 -6.22507113 32.20863466 -8.75390625 32.21875 C-10.0382959 32.22124756 -11.32268555 32.22374512 -12.64599609 32.22631836 C-15.06999756 32.23997437 -15.06999756 32.23997437 -17.54296875 32.25390625 C-25.27734375 32.28484375 -25.27734375 32.28484375 -33.16796875 32.31640625 Z " fill="#FC914C" transform="translate(163.16796875,198.68359375)"/>
<path d="M0 0 C6.6 0 13.2 0 20 0 C20 22.11 20 44.22 20 67 C15.71 67 11.42 67 7 67 C6.67 51.82 6.34 36.64 6 21 C2.42235631 35.38974265 2.42235631 35.38974265 -1.15014648 49.78076172 C-1.59860872 51.58045022 -2.04724575 53.38009517 -2.49609375 55.1796875 C-2.72848755 56.11949463 -2.96088135 57.05930176 -3.20031738 58.02758789 C-3.42352661 58.9206665 -3.64673584 59.81374512 -3.87670898 60.73388672 C-4.06990219 61.51110077 -4.2630954 62.28831482 -4.46214294 63.08908081 C-5 65 -5 65 -6 67 C-10.29 67 -14.58 67 -19 67 C-23.11410459 51.36056696 -27.09966492 35.69420545 -31 20 C-31.33 35.51 -31.66 51.02 -32 67 C-35.96 67 -39.92 67 -44 67 C-44 45.22 -44 23.44 -44 1 C-37.4 1 -30.8 1 -24 1 C-20.76932698 11.24116216 -18.00279862 21.53841598 -15.38085938 31.94921875 C-15.08630859 33.10550781 -14.79175781 34.26179688 -14.48828125 35.453125 C-14.22571533 36.49629883 -13.96314941 37.53947266 -13.69262695 38.61425781 C-13.22705616 40.93358431 -13.22705616 40.93358431 -12 42 C-11.50802124 40.14483765 -11.50802124 40.14483765 -11.00610352 38.25219727 C-9.79257766 33.67982784 -8.57458999 29.10865707 -7.35522461 24.5378418 C-6.82730549 22.55639731 -6.30060996 20.57462641 -5.77514648 18.5925293 C-5.02125539 15.74962802 -4.26302465 12.90791553 -3.50390625 10.06640625 C-3.26845596 9.17474258 -3.03300568 8.28307892 -2.79042053 7.36439514 C-2.57026779 6.54361984 -2.35011505 5.72284454 -2.12329102 4.87719727 C-1.93009781 4.15105728 -1.7369046 3.4249173 -1.53785706 2.67677307 C-1 1 -1 1 0 0 Z " fill="#1C134F" transform="translate(265,232)"/>
<path d="M0 0 C0 5.61 0 11.22 0 17 C2.97 17 5.94 17 9 17 C9 20.3 9 23.6 9 27 C6.03 27 3.06 27 0 27 C0.33 35.91 0.66 44.82 1 54 C3.64 54.33 6.28 54.66 9 55 C9 58.3 9 61.6 9 65 C3.29869351 66.42532662 -2.36451641 67.00933414 -7.9375 64.875 C-11.4608601 61.67194536 -12.87319062 58.27900213 -13.34057617 53.56494141 C-13.3170105 51.72681885 -13.3170105 51.72681885 -13.29296875 49.8515625 C-13.28872391 49.19417084 -13.28447906 48.53677917 -13.28010559 47.85946655 C-13.26344977 45.78087609 -13.2258262 43.70329226 -13.1875 41.625 C-13.17243605 40.20704536 -13.15875065 38.78907536 -13.14648438 37.37109375 C-13.11359038 33.9137411 -13.06190165 30.45696897 -13 27 C-14.98 27 -16.96 27 -19 27 C-19.33 25.68 -19.66 24.36 -20 23 C-20.66 24.98 -21.32 26.96 -22 29 C-22.60328125 28.88140625 -23.2065625 28.7628125 -23.828125 28.640625 C-28.93228286 27.68604936 -28.93228286 27.68604936 -33.5 29.6875 C-36.20566482 33.85873326 -36.16579695 37.82881501 -36.31640625 42.734375 C-36.35830078 44.02988281 -36.40019531 45.32539063 -36.44335938 46.66015625 C-36.48316671 48.02343476 -36.52287906 49.38671606 -36.5625 50.75 C-36.60572274 52.12891875 -36.64933821 53.50782526 -36.69335938 54.88671875 C-36.79943899 58.25769306 -36.90022365 61.62883323 -37 65 C-41.29 65 -45.58 65 -50 65 C-50 49.16 -50 33.32 -50 17 C-46.04 17 -42.08 17 -38 17 C-37.67 18.32 -37.34 19.64 -37 21 C-35.7934375 19.7625 -35.7934375 19.7625 -34.5625 18.5 C-31.13735665 15.61309347 -28.41272782 15.53068925 -24.05078125 15.7265625 C-22 16 -22 16 -19 17 C-17.00038436 17.03920815 -14.99950636 17.04443347 -13 17 C-13.13921875 16.35933594 -13.2784375 15.71867188 -13.421875 15.05859375 C-13.80357943 12.00950241 -13.87358856 9.96503705 -13 7 C-9.80130428 4.30361798 -4.40188178 0 0 0 Z " fill="#1F1248" transform="translate(399,234)"/>
<path d="M0 0 C0.68102783 -0.01401855 1.36205566 -0.02803711 2.0637207 -0.04248047 C7.87013824 0.01262363 11.82459033 1.60167272 16.1875 5.375 C19.32484813 9.09333853 19.04532839 12.73366697 19.15625 17.421875 C19.18386414 18.45601532 19.18386414 18.45601532 19.21203613 19.51104736 C19.27069502 21.7156127 19.32349181 23.92025675 19.375 26.125 C19.42667075 28.31545367 19.47979323 30.50581469 19.53796387 32.69610596 C19.5910212 34.69411502 19.63843705 36.69227154 19.68554688 38.69042969 C19.87256515 42.32764591 20.30240398 45.78294519 20.875 49.375 C16.915 49.375 12.955 49.375 8.875 49.375 C8.215 48.055 7.555 46.735 6.875 45.375 C5.94880859 45.91640625 5.94880859 45.91640625 5.00390625 46.46875 C-0.85255931 49.67777222 -5.43542801 51.49407338 -12.125 50.375 C-16.29369378 49.14489364 -18.53287163 47.98231115 -21.5625 44.875 C-23.74999911 39.975002 -23.91567626 35.65962195 -23.125 30.375 C-20.47271191 25.47846814 -16.42735331 23.42279809 -11.1875 21.76025391 C-9.11163434 21.19812298 -7.0301879 20.68318736 -4.9375 20.1875 C-4.22658203 20.01025391 -3.51566406 19.83300781 -2.78320312 19.65039062 C0.17394146 18.92988221 2.82030377 18.375 5.875 18.375 C5.215 16.065 4.555 13.755 3.875 11.375 C2.10550905 11.26684775 0.33412513 11.18933917 -1.4375 11.125 C-2.91669922 11.05539062 -2.91669922 11.05539062 -4.42578125 10.984375 C-5.31652344 11.11328125 -6.20726562 11.2421875 -7.125 11.375 C-7.6096875 12.0453125 -8.094375 12.715625 -8.59375 13.40625 C-9.0990625 14.0559375 -9.604375 14.705625 -10.125 15.375 C-13.04296875 15.546875 -13.04296875 15.546875 -16.3125 15.125 C-17.94251953 14.93164062 -17.94251953 14.93164062 -19.60546875 14.734375 C-20.43691406 14.61578125 -21.26835937 14.4971875 -22.125 14.375 C-21.35889981 9.6171146 -19.75651303 6.56632964 -16.125 3.375 C-10.85069615 0.38954499 -5.9931761 0.08599706 0 0 Z " fill="#2E173E" transform="translate(318.125,249.625)"/>
<path d="M0 0 C2.77245014 -0.13487595 5.53837088 -0.23400807 8.3125 -0.3125 C9.49102539 -0.3753418 9.49102539 -0.3753418 10.69335938 -0.43945312 C12.89736673 -0.4863469 14.84430404 -0.46628983 17 0 C20.17696169 3.62372193 20.53740363 7.28151698 21 12 C20.01 12.495 20.01 12.495 19 13 C17.86649466 15.01669827 17.86649466 15.01669827 17 17 C16.67 16.01 16.34 15.02 16 14 C15.34 14 14.68 14 14 14 C13.67 13.67 13.34 13.34 13 13 C10.51072892 15.48927108 10.73403625 16.2876435 10.68115234 19.72509766 C10.66128265 20.70596344 10.64141296 21.68682922 10.62094116 22.69741821 C10.60361435 24.28965714 10.60361435 24.28965714 10.5859375 25.9140625 C10.56657135 26.99883881 10.5472052 28.08361511 10.5272522 29.20126343 C10.46733574 32.67576159 10.42102261 36.15029267 10.375 39.625 C10.33683135 41.97657718 10.29778029 44.32814021 10.2578125 46.6796875 C10.16162441 52.4529997 10.07661247 58.22639666 10 64 C8.52093108 64.02689216 7.04172517 64.04634621 5.5625 64.0625 C4.32693359 64.07990234 4.32693359 64.07990234 3.06640625 64.09765625 C1 64 1 64 0 63 C-0.0940067 61.03630847 -0.11743381 59.06920801 -0.11352539 57.10327148 C-0.11344986 55.84203964 -0.11337433 54.5808078 -0.11329651 53.28135681 C-0.1081891 51.89460206 -0.10297309 50.50784771 -0.09765625 49.12109375 C-0.09579201 47.71004791 -0.09436814 46.29900143 -0.09336853 44.88795471 C-0.08954379 41.16759465 -0.0797139 37.4472734 -0.06866455 33.72692871 C-0.05844948 29.93319219 -0.05387071 26.13944942 -0.04882812 22.34570312 C-0.03809158 14.89711769 -0.0210157 7.44856428 0 0 Z " fill="#19114E" transform="translate(222,234)"/>
<path d="M0 0 C0.71167986 5.07071901 1.10662326 9.88208358 1 15 C3.31 15.66 5.62 16.32 8 17 C8 21.29 8 25.58 8 30 C5.69 30.33 3.38 30.66 1 31 C0.67 32.32 0.34 33.64 0 35 C0.66 35.33 1.32 35.66 2 36 C1.67 36.33 1.34 36.66 1 37 C0.76298761 39.85877909 0.57780818 42.69883297 0.4375 45.5625 C0.37272461 46.77196289 0.37272461 46.77196289 0.30664062 48.00585938 C0.20024738 50.00368805 0.09959112 52.0018207 0 54 C2.64 54 5.28 54 8 54 C8.99 57.63 9.98 61.26 11 65 C11.99 63.02 11.99 63.02 13 61 C13.66 61 14.32 61 15 61 C14.07506212 64.78383679 13.60628829 66.56693694 10.375 68.875 C9.59125 69.24625 8.8075 69.6175 8 70 C7.67 69.67 7.34 69.34 7 69 C4.53733145 68.78841034 2.09227116 68.62382216 -0.375 68.5 C-7.60005543 68.13331486 -7.60005543 68.13331486 -11 67 C-10.67 66.34 -10.34 65.68 -10 65 C-8.515 65.495 -8.515 65.495 -7 66 C-4.60509014 66.06970052 -2.20832309 66.08448003 0.1875 66.0625 C1.45980469 66.05347656 2.73210937 66.04445313 4.04296875 66.03515625 C5.01878906 66.02355469 5.99460937 66.01195312 7 66 C7 62.7 7 59.4 7 56 C5.700625 56.020625 4.40125 56.04125 3.0625 56.0625 C1.70834367 56.08399454 0.35243917 56.07148199 -1 56 C-2 55 -2 55 -2.11352539 52.40795898 C-2.10567017 50.71908569 -2.10567017 50.71908569 -2.09765625 48.99609375 C-2.09282227 47.17368164 -2.09282227 47.17368164 -2.08789062 45.31445312 C-2.07532227 43.39536133 -2.07532227 43.39536133 -2.0625 41.4375 C-2.05798828 40.15423828 -2.05347656 38.87097656 -2.04882812 37.54882812 C-2.03699545 34.36583978 -2.02051068 31.18294238 -2 28 C0.97 28 3.94 28 7 28 C7 24.7 7 21.4 7 18 C4.03 18 1.06 18 -2 18 C-2.33 12.72 -2.66 7.44 -3 2 C-4.60875 2.99 -6.2175 3.98 -7.875 5 C-12.75 8 -12.75 8 -15 8 C-15 11.3 -15 14.6 -15 18 C-21.75 19.125 -21.75 19.125 -24 18 C-28.60522505 17.4480968 -31.96378772 17.3385879 -35.9375 19.875 C-36.618125 20.57625 -37.29875 21.2775 -38 22 C-38.66 22.66 -39.32 23.32 -40 24 C-40 22.02 -40 20.04 -40 18 C-43.96 18 -47.92 18 -52 18 C-52 33.84 -52 49.68 -52 66 C-47.71 66 -43.42 66 -39 66 C-39 66.66 -39 67.32 -39 68 C-41.31 68 -43.62 68 -46 68 C-46.33 68.66 -46.66 69.32 -47 70 C-47 69.34 -47 68.68 -47 68 C-52.25781903 66.79508314 -55.27633742 67.11124649 -60.203125 69.30859375 C-62 70 -62 70 -65 70 C-65 69.34 -65 68.68 -65 68 C-65.94875 68.350625 -66.8975 68.70125 -67.875 69.0625 C-71 70 -71 70 -73 69 C-73.495 69.99 -73.495 69.99 -74 71 C-75.65 71 -77.3 71 -79 71 C-79 70.34 -79 69.68 -79 69 C-79.99 68.67 -80.98 68.34 -82 68 C-82 67.67 -82 67.34 -82 67 C-83.32 66.67 -84.64 66.34 -86 66 C-82.37 64.35 -78.74 62.7 -75 61 C-74.67 62.65 -74.34 64.3 -74 66 C-70.04 66 -66.08 66 -62 66 C-62.32363525 64.99984863 -62.64727051 63.99969727 -62.98071289 62.96923828 C-64.07865072 59.11299854 -64.26965712 55.51054905 -64.30859375 51.4921875 C-64.33373203 50.07942257 -64.35913033 48.66666225 -64.38476562 47.25390625 C-64.41355609 45.05746453 -64.4376182 42.8611021 -64.45629883 40.66455078 C-64.47800152 38.52337774 -64.51741041 36.38306169 -64.55859375 34.2421875 C-64.57204834 32.9722998 -64.58550293 31.70241211 -64.59936523 30.39404297 C-65.02831782 26.76010094 -65.89484566 24.94522128 -68 22 C-68.66 21.01 -69.32 20.02 -70 19 C-68.02 19 -66.04 19 -64 19 C-63.855625 19.78375 -63.71125 20.5675 -63.5625 21.375 C-63.12201075 23.96421018 -63.12201075 23.96421018 -62 26 C-61.91440882 28.17824961 -61.89286588 30.35915255 -61.90234375 32.5390625 C-61.90556641 33.84101563 -61.90878906 35.14296875 -61.91210938 36.484375 C-61.92046534 37.86458399 -61.92893029 39.24479232 -61.9375 40.625 C-61.94251499 42.01301926 -61.9470779 43.40104022 -61.95117188 44.7890625 C-61.96299024 48.19275132 -61.97946566 51.59635439 -62 55 C-61.34 55.33 -60.68 55.66 -60 56 C-58.37265234 59.34510352 -58 61.18835834 -58 65 C-56.515 64.505 -56.515 64.505 -55 64 C-55 50.47 -55 36.94 -55 23 C-55.66 22.67 -56.32 22.34 -57 22 C-57 20.02 -57 18.04 -57 16 C-50.7306836 15.05670008 -43.88778228 14.05610886 -38 17 C-36.661373 16.68860533 -35.32850581 16.35208125 -34 16 C-32.55901569 15.92233916 -31.11491371 15.89203633 -29.671875 15.90234375 C-28.47304688 15.90717773 -28.47304688 15.90717773 -27.25 15.91210938 C-26.425 15.92048828 -25.6 15.92886719 -24.75 15.9375 C-23.90953125 15.94201172 -23.0690625 15.94652344 -22.203125 15.95117188 C-20.13538599 15.96292039 -18.06768376 15.98085478 -16 16 C-16 13.03 -16 10.06 -16 7 C-15.01 6.67 -14.02 6.34 -13 6 C-13 4.68 -13 3.36 -13 2 C-11.02 2 -9.04 2 -7 2 C-7 1.34 -7 0.68 -7 0 C-3.86650268 -1.04449911 -3.01031744 -0.93423645 0 0 Z " fill="#F0A66B" transform="translate(401,233)"/>
<path d="M0 0 C0.99 0.495 0.99 0.495 2 1 C1.48050781 1.44730469 0.96101563 1.89460938 0.42578125 2.35546875 C-3.52679654 5.78201031 -7.35827082 9.24446679 -11 13 C-10.505 13.99 -10.505 13.99 -10 15 C-11.98 15 -13.96 15 -16 15 C-16.28875 15.763125 -16.5775 16.52625 -16.875 17.3125 C-18 20 -18 20 -20 23 C-20.99 22.67 -21.98 22.34 -23 22 C-24.80411967 24.75924185 -25.0127245 25.88972103 -24.625 29.25 C-24.41875 30.1575 -24.2125 31.065 -24 32 C-24.99 32.33 -25.98 32.66 -27 33 C-27 32.01 -27 31.02 -27 30 C-28.15224028 30.92961422 -29.29659176 31.8690125 -30.4375 32.8125 C-31.39462891 33.59560547 -31.39462891 33.59560547 -32.37109375 34.39453125 C-34.2548275 36.00834411 -34.2548275 36.00834411 -35 39 C-35.99 39.495 -35.99 39.495 -37 40 C-36.01 40.495 -36.01 40.495 -35 41 C-35.5625 43.3125 -35.5625 43.3125 -37 46 C-40.5625 47.6875 -40.5625 47.6875 -44 49 C-44.495 49.99 -44.495 49.99 -45 51 C-43.02 50.505 -43.02 50.505 -41 50 C-41.6875 51.875 -41.6875 51.875 -43 54 C-45.5 55.125 -45.5 55.125 -48 56 C-48.66 56.66 -49.32 57.32 -50 58 C-49.67958603 60.60280568 -49.67958603 60.60280568 -49 63 C-49.78375 63.226875 -50.5675 63.45375 -51.375 63.6875 C-54.17708333 64.76041667 -54.17708333 64.76041667 -55.1875 67.375 C-55.455625 68.24125 -55.72375 69.1075 -56 70 C-56.391875 70.680625 -56.78375 71.36125 -57.1875 72.0625 C-58.18971474 74.4523967 -57.85580298 75.60375166 -57 78 C-57.495 77.01 -57.495 77.01 -58 76 C-58.66 76 -59.32 76 -60 76 C-60 78.64 -60 81.28 -60 84 C-61.98 84.495 -61.98 84.495 -64 85 C-64.12117188 85.60328125 -64.24234375 86.2065625 -64.3671875 86.828125 C-64.53476563 87.62734375 -64.70234375 88.4265625 -64.875 89.25 C-65.11863281 90.43335938 -65.11863281 90.43335938 -65.3671875 91.640625 C-65.99444378 93.97928422 -66.84829428 95.87795953 -68 98 C-68.495 98.99 -68.495 98.99 -69 100 C-68.34 100.66 -67.68 101.32 -67 102 C-67.62390625 102.19722656 -68.2478125 102.39445312 -68.890625 102.59765625 C-71.29042411 103.88980183 -71.29042411 103.88980183 -72.046875 106.93359375 C-72.27890625 108.08988281 -72.5109375 109.24617188 -72.75 110.4375 C-72.99234375 111.59121094 -73.2346875 112.74492187 -73.484375 113.93359375 C-74.08291241 116.97483495 -74.08291241 116.97483495 -74 120 C-74 120.99 -74 121.98 -74 123 C-73.773125 123.61875 -73.54625 124.2375 -73.3125 124.875 C-72.85795314 127.96591867 -74.35721664 129.43725796 -76 132 C-76 132.99 -76 133.98 -76 135 C-76.66 135 -77.32 135 -78 135 C-77.98839844 135.84304687 -77.97679688 136.68609375 -77.96484375 137.5546875 C-77.95130859 139.19824219 -77.95130859 139.19824219 -77.9375 140.875 C-77.92589844 141.96554688 -77.91429688 143.05609375 -77.90234375 144.1796875 C-78 147 -78 147 -79 149 C-79.12563777 151.90719966 -79.18518699 154.78004426 -79.1875 157.6875 C-79.19974609 158.47833984 -79.21199219 159.26917969 -79.22460938 160.08398438 C-79.23705606 165.10829642 -78.44007384 169.15457508 -77 174 C-76.8046875 177.52734375 -76.8046875 177.52734375 -76.875 180.9375 C-76.89304687 182.08089844 -76.91109375 183.22429687 -76.9296875 184.40234375 C-76.95289062 185.25957031 -76.97609375 186.11679687 -77 187 C-76.01 187.33 -75.02 187.66 -74 188 C-74.66 188.33 -75.32 188.66 -76 189 C-75.731875 190.155 -75.46375 191.31 -75.1875 192.5 C-74.00044344 197.80783864 -73.01972873 203.15034857 -72.0534668 208.50195312 C-71.51933949 211.42114393 -70.94003254 214.17990239 -70 217 C-69.01 217.33 -68.02 217.66 -67 218 C-66.04868128 220.47342867 -65.88621973 222.92649652 -65.5625 225.5625 C-65.22498113 229.11000229 -65.22498113 229.11000229 -63 232 C-63.375 234.1875 -63.375 234.1875 -64 236 C-66.34833685 233.12778104 -67.70894271 230.53297976 -68.90234375 227.02734375 C-69.39903564 225.56880981 -69.39903564 225.56880981 -69.90576172 224.08081055 C-70.24623535 223.04351807 -70.58670898 222.00622559 -70.9375 220.9375 C-71.46754639 219.32645386 -71.46754639 219.32645386 -72.00830078 217.68286133 C-87.71464725 168.81343768 -83.21991381 115.42423142 -60.3828125 69.5390625 C-46.14010366 41.8886839 -25.00560855 18.27057358 0 0 Z " fill="#F5D86D" transform="translate(145,105)"/>
<path d="M0 0 C0 0.66 0 1.32 0 2 C-2.31 2 -4.62 2 -7 2 C-7 2.99 -7 3.98 -7 5 C-6.2575 5 -5.515 5 -4.75 5 C-2.5 5 -0.25 5 2 5 C4.58215672 7.58215672 4.29794465 8.72703127 4.3125 12.3125 C4.24945178 16.68002181 3.87413657 19.52708497 1 23 C2.32 23.66 3.64 24.32 5 25 C3.73168307 25.81642254 2.46024069 26.62799105 1.1875 27.4375 C0.12595703 28.11619141 0.12595703 28.11619141 -0.95703125 28.80859375 C-5.51143721 31.46460488 -9.87819591 31.46019538 -15 31 C-19.16869378 29.76989364 -21.40787163 28.60731115 -24.4375 25.5 C-26.62499911 20.600002 -26.79067626 16.28462195 -26 11 C-23.59132251 6.55321078 -20.64506615 4.82484741 -16 3 C-10.63891152 1.44054129 -5.60464896 0 0 0 Z M-7.125 23.5 C-9.043125 23.7475 -9.043125 23.7475 -11 24 C-11 24.99 -11 25.98 -11 27 C-11.66 27 -12.32 27 -13 27 C-13 27.99 -13 28.98 -13 30 C-12.34 30 -11.68 30 -11 30 C-10.67 29.34 -10.34 28.68 -10 28 C-6.54670274 26.27335137 -3.84169158 25.78047477 0 26 C-0.33 25.01 -0.66 24.02 -1 23 C-3.08896425 23 -5.05372935 23.23273927 -7.125 23.5 Z " fill="#211446" transform="translate(321,269)"/>
<path d="M0 0 C0.66 0.33 1.32 0.66 2 1 C2.33 11.23 2.66 21.46 3 32 C3.66 32 4.32 32 5 32 C5.2475 31.05125 5.495 30.1025 5.75 29.125 C7 26 7 26 9.125 24.625 C9.74375 24.41875 10.3625 24.2125 11 24 C11.66 24.99 12.32 25.98 13 27 C12.01 29.475 12.01 29.475 11 32 C14.96 32.33 18.92 32.66 23 33 C23.66 31.68 24.32 30.36 25 29 C26.73849628 27.26150372 29.0786637 27.82783704 31.4375 27.8125 C32.42621094 27.79832031 33.41492188 27.78414063 34.43359375 27.76953125 C37 28 37 28 39 30 C39.125 33.125 39.125 33.125 39 36 C38.35973877 36.15557373 37.71947754 36.31114746 37.05981445 36.47143555 C34.13922508 37.19199743 31.22615759 37.93942344 28.3125 38.6875 C26.80139648 39.05391602 26.80139648 39.05391602 25.25976562 39.42773438 C19.40769446 40.95352191 15.7799359 42.20147084 12 47 C11.67 47.33 11.34 47.66 11 48 C10.90091217 49.78940972 10.87029621 51.58285508 10.875 53.375 C10.87242187 54.35210937 10.86984375 55.32921875 10.8671875 56.3359375 C10.88565965 59.10464416 10.88565965 59.10464416 12 62 C11.01 62.495 11.01 62.495 10 63 C10 62.01 10 61.02 10 60 C9.34 60 8.68 60 8 60 C7.67 60.66 7.34 61.32 7 62 C6.34 61.34 5.68 60.68 5 60 C5 58 5 56 5 54 C3.515 53.505 3.515 53.505 2 53 C2 57.62 2 62.24 2 67 C0.515 67.495 0.515 67.495 -1 68 C-1 68.66 -1 69.32 -1 70 C-2.81325551 69.88648483 -4.62563357 69.75887039 -6.4375 69.625 C-7.44683594 69.55539062 -8.45617187 69.48578125 -9.49609375 69.4140625 C-10.32238281 69.27742188 -11.14867187 69.14078125 -12 69 C-12.33 68.34 -12.66 67.68 -13 67 C-8.71 67 -4.42 67 0 67 C0 44.89 0 22.78 0 0 Z " fill="#F9AE55" transform="translate(285,232)"/>
<path d="M0 0 C3.7434375 -0.0309375 3.7434375 -0.0309375 7.5625 -0.0625 C8.71987671 -0.07615601 8.71987671 -0.07615601 9.90063477 -0.09008789 C21.15634942 -0.1345542 21.15634942 -0.1345542 25.4375 2.5 C27.4329176 5.69266816 27.52115764 8.07976843 27.62890625 11.78125 C27 14 27 14 25.171875 16.265625 C20.41287966 18.86783428 16.01359678 18.4271958 10.6875 18.25 C9.14739258 18.22292969 9.14739258 18.22292969 7.57617188 18.1953125 C5.05037929 18.14832101 2.52506863 18.07658169 0 18 C0 12.06 0 6.12 0 0 Z " fill="#FD904C" transform="translate(142,265)"/>
<path d="M0 0 C0.33 0 0.66 0 1 0 C1.33 11.88 1.66 23.76 2 36 C3.485 36.495 3.485 36.495 5 37 C5 37.99 5 38.98 5 40 C1.04 40 -2.92 40 -7 40 C-7.33 38.02 -7.66 36.04 -8 34 C-9.98 33.67 -11.96 33.34 -14 33 C-13.01 32.34 -12.02 31.68 -11 31 C-9.95023036 27.85069107 -9.89868405 25.61185544 -9.9375 22.3125 C-9.94652344 21.31863281 -9.95554687 20.32476562 -9.96484375 19.30078125 C-9.97644531 18.54152344 -9.98804688 17.78226562 -10 17 C-11.83284443 15.87483915 -11.83284443 15.87483915 -14 15 C-14.99 15.33 -15.98 15.66 -17 16 C-17.99 15.67 -18.98 15.34 -20 15 C-20 14.01 -20 13.02 -20 12 C-17.69 12 -15.38 12 -13 12 C-13 11.34 -13 10.68 -13 10 C-12.28972656 9.75765625 -11.57945312 9.5153125 -10.84765625 9.265625 C-9.92855469 8.93046875 -9.00945312 8.5953125 -8.0625 8.25 C-7.14597656 7.92515625 -6.22945313 7.6003125 -5.28515625 7.265625 C-2.8211165 6.22179047 -2.8211165 6.22179047 -2.18359375 3.859375 C-2.09271484 2.93898438 -2.09271484 2.93898438 -2 2 C-1.34 2 -0.68 2 0 2 C0 1.34 0 0.68 0 0 Z M-13 34 C-13 34.66 -13 35.32 -13 36 C-13.721875 35.95875 -14.44375 35.9175 -15.1875 35.875 C-18.24443843 36.01086393 -20.27346317 36.63673158 -23 38 C-23.33 38.66 -23.66 39.32 -24 40 C-24.66 40 -25.32 40 -26 40 C-26 39.01 -26 38.02 -26 37 C-25.34 37 -24.68 37 -24 37 C-24 36.01 -24 35.02 -24 34 C-16.375 32.875 -16.375 32.875 -13 34 Z " fill="#1A114E" transform="translate(334,259)"/>
<path d="M0 0 C0.91644287 0.00523682 1.83288574 0.01047363 2.77709961 0.01586914 C3.76645508 0.0190918 4.75581055 0.02231445 5.77514648 0.02563477 C6.81606445 0.03401367 7.85698242 0.04239258 8.92944336 0.05102539 C10.49662109 0.05779297 10.49662109 0.05779297 12.09545898 0.06469727 C14.68600996 0.07652627 17.27644895 0.0930085 19.86694336 0.11352539 C21.36816161 4.33348535 22.08101566 7.61800707 21.86694336 12.11352539 C21.53694336 12.11352539 21.20694336 12.11352539 20.86694336 12.11352539 C20.20694336 8.81352539 19.54694336 5.51352539 18.86694336 2.11352539 C12.26694336 2.11352539 5.66694336 2.11352539 -1.13305664 2.11352539 C-1.13305664 23.89352539 -1.13305664 45.67352539 -1.13305664 68.11352539 C2.82694336 68.11352539 6.78694336 68.11352539 10.86694336 68.11352539 C10.86694336 51.28352539 10.86694336 34.45352539 10.86694336 17.11352539 C13.45199094 22.28362056 14.65401093 27.52497621 16.05444336 33.11352539 C16.3399707 34.20665039 16.62549805 35.29977539 16.91967773 36.42602539 C17.18458008 37.47790039 17.44948242 38.52977539 17.72241211 39.61352539 C17.96628662 40.57258789 18.21016113 41.53165039 18.46142578 42.51977539 C18.86756366 45.11749294 18.71578475 46.6536621 17.86694336 49.11352539 C15.83528383 44.7793184 15.34633704 40.82756327 14.86694336 36.11352539 C14.20694336 36.11352539 13.54694336 36.11352539 12.86694336 36.11352539 C12.87741699 37.07242676 12.88789063 38.03132813 12.89868164 39.01928711 C12.93483664 42.57133258 12.95782729 46.12336173 12.97680664 49.67553711 C12.98687454 51.21397637 13.00052982 52.75239646 13.01782227 54.29077148 C13.04203653 56.49996672 13.05341827 58.70890934 13.06225586 60.91821289 C13.07257843 61.60785126 13.082901 62.29748962 13.09353638 63.00802612 C13.09393814 64.71153445 12.98885361 66.41438482 12.86694336 68.11352539 C10.09652227 70.88394648 8.1016053 70.51148645 4.24194336 70.73852539 C2.45916992 70.85067383 2.45916992 70.85067383 0.64038086 70.96508789 C-0.7324707 71.03856445 -0.7324707 71.03856445 -2.13305664 71.11352539 C-3.55812012 68.26339844 -3.26033971 65.84636292 -3.26245117 62.66015625 C-3.26420349 61.99822769 -3.26595581 61.33629913 -3.26776123 60.65431213 C-3.27216928 58.46230462 -3.26924578 56.2703775 -3.26586914 54.07836914 C-3.2665424 52.55904627 -3.26751261 51.0397235 -3.26876831 49.520401 C-3.2702438 46.33520482 -3.26809521 43.15003667 -3.26342773 39.96484375 C-3.25772568 35.87331638 -3.26101339 31.78185453 -3.2670002 27.69032955 C-3.2706057 24.55318199 -3.26946736 21.41605008 -3.26687241 18.27890205 C-3.26620336 16.76975052 -3.26703079 15.26059758 -3.26935196 13.75144768 C-3.27187884 11.64675987 -3.26803767 9.54217975 -3.26245117 7.4375 C-3.26165558 6.23774033 -3.26085999 5.03798065 -3.26004028 3.80186462 C-3.08822289 0.16436118 -3.08822289 0.16436118 0 0 Z " fill="#CE9F6C" transform="translate(222.133056640625,230.886474609375)"/>
<path d="M0 0 C3.41751005 -0.10792137 6.83161597 -0.18727736 10.25 -0.25 C11.70212891 -0.30027344 11.70212891 -0.30027344 13.18359375 -0.3515625 C20.33928981 -0.45026176 20.33928981 -0.45026176 23.63671875 1.796875 C25.6648341 5.07440238 25.60550195 7.23243233 25 11 C22.81219527 13.54942535 21.08613572 14.84962804 17.71459961 15.31640625 C15.02794677 15.39375661 12.37335242 15.3487027 9.6875 15.25 C8.75615234 15.23195313 7.82480469 15.21390625 6.86523438 15.1953125 C4.57637851 15.14836161 2.28805473 15.07662323 0 15 C0 10.05 0 5.1 0 0 Z " fill="#F69152" transform="translate(142,241)"/>
<path d="M0 0 C0.71167986 5.07071901 1.10662326 9.88208358 1 15 C3.31 15.66 5.62 16.32 8 17 C8 21.29 8 25.58 8 30 C5.69 30.33 3.38 30.66 1 31 C0.67 32.32 0.34 33.64 0 35 C0.99 35.495 0.99 35.495 2 36 C1.67 36.33 1.34 36.66 1 37 C0.76298761 39.85877909 0.57780818 42.69883297 0.4375 45.5625 C0.37272461 46.77196289 0.37272461 46.77196289 0.30664062 48.00585938 C0.20024738 50.00368805 0.09959112 52.0018207 0 54 C2.64 54 5.28 54 8 54 C8.99 57.63 9.98 61.26 11 65 C11.99 63.02 11.99 63.02 13 61 C13.66 61 14.32 61 15 61 C14.07506212 64.78383679 13.60628829 66.56693694 10.375 68.875 C9.59125 69.24625 8.8075 69.6175 8 70 C7.67 69.67 7.34 69.34 7 69 C4.53733145 68.78841034 2.09227116 68.62382216 -0.375 68.5 C-7.60005543 68.13331486 -7.60005543 68.13331486 -11 67 C-10.67 66.34 -10.34 65.68 -10 65 C-9.01 65.33 -8.02 65.66 -7 66 C-4.60509014 66.06970052 -2.20832309 66.08448003 0.1875 66.0625 C1.45980469 66.05347656 2.73210937 66.04445313 4.04296875 66.03515625 C5.01878906 66.02355469 5.99460937 66.01195312 7 66 C7 62.7 7 59.4 7 56 C5.700625 56.020625 4.40125 56.04125 3.0625 56.0625 C1.70834367 56.08399454 0.35243917 56.07148199 -1 56 C-2 55 -2 55 -2.11352539 52.40795898 C-2.10828857 51.28204346 -2.10305176 50.15612793 -2.09765625 48.99609375 C-2.09443359 47.78115234 -2.09121094 46.56621094 -2.08789062 45.31445312 C-2.07532227 43.39536133 -2.07532227 43.39536133 -2.0625 41.4375 C-2.05798828 40.15423828 -2.05347656 38.87097656 -2.04882812 37.54882812 C-2.03699545 34.36583978 -2.02051068 31.18294238 -2 28 C0.97 28 3.94 28 7 28 C7 24.7 7 21.4 7 18 C4.03 18 1.06 18 -2 18 C-2.33 12.72 -2.66 7.44 -3 2 C-4.60875 2.99 -6.2175 3.98 -7.875 5 C-12.75 8 -12.75 8 -15 8 C-15 11.3 -15 14.6 -15 18 C-21.75 19.125 -21.75 19.125 -24 18 C-28.60522505 17.4480968 -31.96378772 17.3385879 -35.9375 19.875 C-36.618125 20.57625 -37.29875 21.2775 -38 22 C-38.66 22.66 -39.32 23.32 -40 24 C-40 22.02 -40 20.04 -40 18 C-43.96 18 -47.92 18 -52 18 C-52 17.67 -52 17.34 -52 17 C-51.03578125 17.01160156 -50.0715625 17.02320313 -49.078125 17.03515625 C-47.18320312 17.04869141 -47.18320312 17.04869141 -45.25 17.0625 C-43.37054688 17.07990234 -43.37054688 17.07990234 -41.453125 17.09765625 C-38.22300294 17.13386227 -38.22300294 17.13386227 -36.0546875 16.5 C-33.84875952 15.96319623 -31.93924389 15.88614826 -29.671875 15.90234375 C-28.47304688 15.90717773 -28.47304688 15.90717773 -27.25 15.91210938 C-26.425 15.92048828 -25.6 15.92886719 -24.75 15.9375 C-23.90953125 15.94201172 -23.0690625 15.94652344 -22.203125 15.95117188 C-20.13538599 15.96292039 -18.06768376 15.98085478 -16 16 C-16 13.03 -16 10.06 -16 7 C-15.01 6.67 -14.02 6.34 -13 6 C-13 4.68 -13 3.36 -13 2 C-11.02 2 -9.04 2 -7 2 C-7 1.34 -7 0.68 -7 0 C-3.86650268 -1.04449911 -3.01031744 -0.93423645 0 0 Z " fill="#E7986C" transform="translate(401,233)"/>
<path d="M0 0 C3.23178495 0.30063116 4.44192864 0.92422967 6.6875 3.25 C8.04567256 8.55633544 8.11129815 13.99117788 8.375 19.4375 C8.43494141 20.44748047 8.49488281 21.45746094 8.55664062 22.49804688 C8.60369141 23.46162109 8.65074219 24.42519531 8.69921875 25.41796875 C8.74522217 26.29735107 8.79122559 27.1767334 8.83862305 28.08276367 C8.6875 30.25 8.6875 30.25 6.6875 32.25 C4.5625 31.875 4.5625 31.875 2.6875 31.25 C2.1925 33.725 2.1925 33.725 1.6875 36.25 C0.6975 35.92 -0.2925 35.59 -1.3125 35.25 C-2.52376005 28.33144682 -2.68665865 21.38380241 -2.9375 14.375 C-2.9890625 13.1271875 -3.040625 11.879375 -3.09375 10.59375 C-3.13757813 9.41039062 -3.18140625 8.22703125 -3.2265625 7.0078125 C-3.2673291 5.9264502 -3.3080957 4.84508789 -3.35009766 3.73095703 C-3.30080295 0.47814687 -3.20813035 0.3468249 0 0 Z M3.6875 0.25 C5.6875 1.25 5.6875 1.25 5.6875 1.25 Z " fill="#191150" transform="translate(390.3125,259.75)"/>
<path d="M0 0 C6.6 0 13.2 0 20 0 C20 22.11 20 44.22 20 67 C16.04 67 12.08 67 8 67 C8 51.49 8 35.98 8 20 C8.33 20 8.66 20 9 20 C9.33 34.52 9.66 49.04 10 64 C12.64 64.33 15.28 64.66 18 65 C18 44.21 18 23.42 18 2 C12.06 2 6.12 2 0 2 C0 3.32 0 4.64 0 6 C-0.66 6 -1.32 6 -2 6 C-1.34 4.02 -0.68 2.04 0 0 Z " fill="#3B2235" transform="translate(265,232)"/>
<path d="M0 0 C-0.33 2.64 -0.66 5.28 -1 8 C-2.32 8.33 -3.64 8.66 -5 9 C-5.12375 8.195625 -5.2475 7.39125 -5.375 6.5625 C-5.58125 5.716875 -5.7875 4.87125 -6 4 C-6.66 3.67 -7.32 3.34 -8 3 C-8 3.66 -8 4.32 -8 5 C-12.62 5 -17.24 5 -22 5 C-22.66 6.65 -23.32 8.3 -24 10 C-26.64 9.67 -29.28 9.34 -32 9 C-32.375 6.8125 -32.375 6.8125 -32 4 C-22.92936542 -5.07063458 -11.39738406 -4.83525384 0 0 Z " fill="#181151" transform="translate(331,254)"/>
<path d="M0 0 C17.55453587 21.9162457 25.20652773 57.24622588 25.1328125 84.91015625 C25.13424759 86.12776894 25.13424759 86.12776894 25.13571167 87.36997986 C25.13638682 89.07160521 25.13457942 90.77323324 25.13037109 92.47485352 C25.1250063 95.05946703 25.13034245 97.64390736 25.13671875 100.22851562 C25.13605799 101.89322954 25.13477686 103.55794336 25.1328125 105.22265625 C25.13483673 105.98433609 25.13686096 106.74601593 25.13894653 107.53077698 C25.11780475 112.43455666 24.69178411 117.1441152 24 122 C23.34 122 22.68 122 22 122 C22.16113281 120.86691406 22.32226562 119.73382813 22.48828125 118.56640625 C23.23394031 111.81060321 23.18602247 105.03418965 23.18530273 98.24633789 C23.18747215 95.96676459 23.20563213 93.68769015 23.22460938 91.40820312 C23.25407311 83.86518143 22.99932422 76.43712546 22.11328125 68.94140625 C22.03554977 68.25594223 21.9578183 67.57047821 21.87773132 66.86424255 C21.66120461 65.23093257 21.34024508 63.61208517 21 62 C20.34 61.67 19.68 61.34 19 61 C19 58.36 19 55.72 19 53 C17.68 53 16.36 53 15 53 C15 51.68 15 50.36 15 49 C15.99 49 16.98 49 18 49 C17.7009375 48.30132812 17.401875 47.60265625 17.09375 46.8828125 C15.59011764 42.91966722 14.72776097 38.86774075 13.78125 34.7421875 C13.09895142 31.81747686 13.09895142 31.81747686 11 29 C11 28.01 11 27.02 11 26 C10.01 26.33 9.02 26.66 8 27 C8 26.34 8 25.68 8 25 C8.66 25 9.32 25 10 25 C9.2884375 23.6078125 9.2884375 23.6078125 8.5625 22.1875 C7 19 7 19 6 16 C5.34 15.34 4.68 14.68 4 14 C3.01 14 2.02 14 1 14 C1.04125 12.783125 1.0825 11.56625 1.125 10.3125 C1.13754508 6.78105873 0.59998217 4.19996434 -1 1 C-0.67 0.67 -0.34 0.34 0 0 Z " fill="#EA935D" transform="translate(425,168)"/>
<path d="M0 0 C6.6 0 13.2 0 20 0 C22.80727307 8.97703542 25.45275713 17.97404291 27.875 27.0625 C28.20757812 28.25810547 28.54015625 29.45371094 28.8828125 30.68554688 C29.18703125 31.83216797 29.49125 32.97878906 29.8046875 34.16015625 C30.08296387 35.18761963 30.36124023 36.21508301 30.64794922 37.27368164 C31.03909101 40.3027249 30.65224153 41.48635585 29 44 C28.82984375 43.18917969 28.6596875 42.37835938 28.484375 41.54296875 C27.28299266 36.05367389 26.02019031 30.78872661 23.9375 25.5625 C21.84471838 20.15150569 21.12158955 14.81451684 20.4921875 9.06640625 C20.1133571 5.72702758 20.1133571 5.72702758 18 2 C12.39 1.67 6.78 1.34 1 1 C1.33 21.79 1.66 42.58 2 64 C4.97 64.33 7.94 64.66 11 65 C11 48.83 11 32.66 11 16 C11.33 16 11.66 16 12 16 C12 32.5 12 49 12 66 C8.04 66 4.08 66 0 66 C0 44.22 0 22.44 0 0 Z " fill="#291122" transform="translate(221,233)"/>
<path d="M0 0 C1.32 0 2.64 0 4 0 C4 0.66 4 1.32 4 2 C4.99 1.67 5.98 1.34 7 1 C6.34 2.32 5.68 3.64 5 5 C5.99 6.485 5.99 6.485 7 8 C6.67 8.99 6.34 9.98 6 11 C7.32 11.66 8.64 12.32 10 13 C9.34 13 8.68 13 8 13 C8 13.66 8 14.32 8 15 C8.66 15 9.32 15 10 15 C10 15.66 10 16.32 10 17 C10.99 16.67 11.98 16.34 13 16 C14.12880057 19.31114834 15.21302675 22.58978257 16 26 C17.98 26.33 19.96 26.66 22 27 C21.62875 27.53625 21.2575 28.0725 20.875 28.625 C19.65142617 31.94612897 20.69536989 33.81090417 22 37 C24.475 36.505 24.475 36.505 27 36 C26.67 36.99 26.34 37.98 26 39 C26.99 39 27.98 39 29 39 C29.99 41.64 30.98 44.28 32 47 C34.31 46.67 36.62 46.34 39 46 C38.67 46.99 38.34 47.98 38 49 C37.01 49 36.02 49 35 49 C35 49.66 35 50.32 35 51 C35.66 51 36.32 51 37 51 C38.0625 52.8125 38.0625 52.8125 39 55 C38.67 55.99 38.34 56.98 38 58 C0 17.65531915 0 17.65531915 0 0 Z " fill="#F6D569" transform="translate(81,341)"/>
<path d="M0 0 C1.17421988 3.52265965 0.81928131 4.09903552 -0.58984375 7.39453125 C-0.95762939 8.26045898 -1.32541504 9.12638672 -1.7043457 10.01855469 C-2.11128662 10.94055664 -2.51822754 11.86255859 -2.9375 12.8125 C-3.35281982 13.76157227 -3.76813965 14.71064453 -4.19604492 15.68847656 C-12.02298435 33.27931773 -22.55547462 50.12050468 -36 64 C-36.495 62.515 -36.495 62.515 -37 61 C-36.34 61 -35.68 61 -35 61 C-35 60.34 -35 59.68 -35 59 C-34.34 59 -33.68 59 -33 59 C-32.5978125 57.7934375 -32.5978125 57.7934375 -32.1875 56.5625 C-31.5996875 55.2940625 -31.5996875 55.2940625 -31 54 C-29.515 53.505 -29.515 53.505 -28 53 C-28 51.68 -28 50.36 -28 49 C-27.01 49 -26.02 49 -25 49 C-25.99 47.68 -26.98 46.36 -28 45 C-26.1875 43 -26.1875 43 -24 41 C-23.01 41 -22.02 41 -21 41 C-20.67 38.69 -20.34 36.38 -20 34 C-18.515 33.505 -18.515 33.505 -17 33 C-16.34 33.33 -15.68 33.66 -15 34 C-14.95101563 33.38511719 -14.90203125 32.77023437 -14.8515625 32.13671875 C-14.77679688 31.32847656 -14.70203125 30.52023437 -14.625 29.6875 C-14.55539062 28.88699219 -14.48578125 28.08648437 -14.4140625 27.26171875 C-14 25 -14 25 -12 22 C-12.33 21.01 -12.66 20.02 -13 19 C-12.1028125 18.87625 -12.1028125 18.87625 -11.1875 18.75 C-8.2771323 17.75215965 -7.5110331 16.66229642 -6 14 C-5.27954633 10.84881675 -5.27954633 10.84881675 -5 8 C-4.34 8 -3.68 8 -3 8 C-3.495 6.02 -3.495 6.02 -4 4 C-3.34 4 -2.68 4 -2 4 C-1.34 2.68 -0.68 1.36 0 0 Z " fill="#EF9558" transform="translate(438,327)"/>
<path d="M0 0 C3.85407757 2.03611645 6.62818881 3.74738532 8 8 C8 8.99 8 9.98 8 11 C0.74 11 -6.52 11 -14 11 C-13.67 9.02 -13.34 7.04 -13 5 C-10.9375 3.625 -10.9375 3.625 -9 3 C-9 2.34 -9 1.68 -9 1 C-5.89046621 -0.5547669 -3.43733239 -0.28644437 0 0 Z " fill="#FEC457" transform="translate(158,208)"/>
<path d="M0 0 C0.61061947 7.9380531 0.61061947 7.9380531 -1.4375 11.5 C-5.17027378 13.68503831 -8.68803085 14.32379256 -13 14 C-15.625 12.4375 -15.625 12.4375 -17 10 C-17.125 6.9375 -17.125 6.9375 -16 4 C-10.69024 0.57815466 -6.20379545 -0.14099535 0 0 Z " fill="#F0A75D" transform="translate(324,277)"/>
<path d="M0 0 C0 0.66 0 1.32 0 2 C-2.31 2 -4.62 2 -7 2 C-7 2.99 -7 3.98 -7 5 C-6.2575 5 -5.515 5 -4.75 5 C-2.5 5 -0.25 5 2 5 C4 7 4 7 4.265625 9.4609375 C4.26046875 10.42257812 4.2553125 11.38421875 4.25 12.375 C4.25515625 13.33148438 4.2603125 14.28796875 4.265625 15.2734375 C3.99403192 18.06126058 3.57730775 19.69713069 2 22 C-0.94826763 22.98275588 -2.92652504 23.13414725 -6 23.125 C-7.299375 23.12886719 -7.299375 23.12886719 -8.625 23.1328125 C-11 23 -11 23 -14 22 C-14.91457003 16.43842552 -15.32086397 12.324335 -13 7 C-17.21900957 6.5638859 -17.21900957 6.5638859 -20.75 8.5 C-21.1625 8.995 -21.575 9.49 -22 10 C-22.66 10 -23.32 10 -24 10 C-23.02760584 7.18005693 -22.1413205 6.09297401 -19.625 4.4375 C-13.32459738 1.93906448 -6.80214343 0 0 0 Z M-12 11 C-14.27671738 13.74841911 -14.27671738 13.74841911 -13.8125 16.5 C-12.92010776 19.24582227 -12.25774508 20.24794895 -10 22 C-5.81174781 22.42422444 -2.05005004 21.61466344 1.5625 19.5 C3.71529227 15.75601344 3.32458364 12.21958726 3 8 C-2.34187187 7.58908678 -7.19492996 8.66473596 -12 11 Z " fill="#2D193E" transform="translate(321,269)"/>
<path d="M0 0 C2.97 0.495 2.97 0.495 6 1 C6.33 1.99 6.66 2.98 7 4 C9.09719872 5.02281518 9.09719872 5.02281518 11.5625 5.6875 C12.38878906 5.93886719 13.21507812 6.19023437 14.06640625 6.44921875 C15.02353516 6.72185547 15.02353516 6.72185547 16 7 C16 7.66 16 8.32 16 9 C17.32 9.33 18.64 9.66 20 10 C20.12375 10.804375 20.2475 11.60875 20.375 12.4375 C20.58125 13.283125 20.7875 14.12875 21 15 C21.66 15.33 22.32 15.66 23 16 C23.66 16.66 24.32 17.32 25 18 C25.763125 18.268125 26.52625 18.53625 27.3125 18.8125 C30 20 30 20 32.25 22.3125 C35.25653791 25.2507075 38.19678803 26.89870791 41.9140625 28.7890625 C44 30 44 30 45.5859375 31.6484375 C47.03543576 33.34547528 47.03543576 33.34547528 50 33 C50 33.66 50 34.32 50 35 C50.66 35 51.32 35 52 35 C52 35.66 52 36.32 52 37 C47.2526919 35.61054397 43.19627068 33.56903232 39 31 C38.02703979 30.40832031 38.02703979 30.40832031 37.03442383 29.8046875 C27.09262434 23.6755374 17.75374708 17.02167496 9.19921875 9.046875 C7.14009967 7.13039472 5.03027428 5.30681676 2.875 3.5 C1.92625 2.675 0.9775 1.85 0 1 C0 0.67 0 0.34 0 0 Z " fill="#F5CD6A" transform="translate(120,399)"/>
<path d="M0 0 C0.66 0.33 1.32 0.66 2 1 C2 22.78 2 44.56 2 67 C0.515 67.495 0.515 67.495 -1 68 C-1 68.66 -1 69.32 -1 70 C-2.81325551 69.88648483 -4.62563357 69.75887039 -6.4375 69.625 C-7.44683594 69.55539062 -8.45617187 69.48578125 -9.49609375 69.4140625 C-10.32238281 69.27742188 -11.14867187 69.14078125 -12 69 C-12.33 68.34 -12.66 67.68 -13 67 C-8.71 67 -4.42 67 0 67 C0 44.89 0 22.78 0 0 Z " fill="#F1B271" transform="translate(285,232)"/>
<path d="M0 0 C0.33 0 0.66 0 1 0 C1 1.98 1 3.96 1 6 C2.98 6 4.96 6 7 6 C7.01458252 6.87213135 7.02916504 7.7442627 7.04418945 8.64282227 C7.10557372 11.90659996 7.17978388 15.16957957 7.26245117 18.43286133 C7.29551994 19.8399778 7.32360704 21.24722116 7.34643555 22.65454102 C7.38031799 24.68820824 7.43264218 26.72073135 7.48828125 28.75390625 C7.51446533 29.97408447 7.54064941 31.1942627 7.56762695 32.45141602 C8.06538037 36.53659159 9.22331938 39.31219843 11 43 C8 42 8 42 6.82470703 39.87817383 C5.84207638 36.44885686 5.77432541 33.51676438 5.8046875 29.94921875 C5.8075174 29.29041214 5.81034729 28.63160553 5.81326294 27.95283508 C5.82439076 25.86419938 5.84948052 23.77600444 5.875 21.6875 C5.88503941 20.26498018 5.89416358 18.8424536 5.90234375 17.41992188 C5.92430553 13.94647319 5.95878354 10.47327967 6 7 C3.97954558 7.60183749 1.97888961 8.27306096 0 9 C-0.33 9.66 -0.66 10.32 -1 11 C-1.99 11 -2.98 11 -4 11 C-4.33 10.34 -4.66 9.68 -5 9 C-8.02934491 8.34227572 -8.02934491 8.34227572 -11 8 C-10.9175 8.928125 -10.835 9.85625 -10.75 10.8125 C-10.8325 11.864375 -10.915 12.91625 -11 14 C-11.65258789 14.43739502 -12.30517578 14.87479004 -12.97753906 15.32543945 C-15.27116734 16.86652671 -15.27116734 16.86652671 -15.54589844 19.72729492 C-15.5668457 20.80084229 -15.58779297 21.87438965 -15.609375 22.98046875 C-15.64160156 24.14384766 -15.67382812 25.30722656 -15.70703125 26.50585938 C-15.72121094 27.72080078 -15.73539062 28.93574219 -15.75 30.1875 C-15.77964844 31.41404297 -15.80929687 32.64058594 -15.83984375 33.90429688 C-15.91062899 36.93626453 -15.96328413 39.96745933 -16 43 C-16.33 43 -16.66 43 -17 43 C-17.08751499 38.47928979 -17.1405661 33.9587993 -17.1875 29.4375 C-17.21263672 28.16068359 -17.23777344 26.88386719 -17.26367188 25.56835938 C-17.35805498 13.45586089 -17.35805498 13.45586089 -14 8 C-11 6 -11 6 -7.4375 6.3125 C-4 7 -4 7 -2 8 C-1.7834375 6.576875 -1.7834375 6.576875 -1.5625 5.125 C-1 2 -1 2 0 0 Z " fill="#E29A6E" transform="translate(379,255)"/>
<path d="M0 0 C2.58504758 5.17009517 3.78706757 10.41145082 5.1875 16 C5.47302734 17.093125 5.75855469 18.18625 6.05273438 19.3125 C6.31763672 20.364375 6.58253906 21.41625 6.85546875 22.5 C7.09934326 23.4590625 7.34321777 24.418125 7.59448242 25.40625 C8.0006203 28.00396755 7.84884139 29.54013671 7 32 C4.96834048 27.66579301 4.47939368 23.71403788 4 19 C3.34 19 2.68 19 2 19 C2 29.56 2 40.12 2 51 C1.34 51 0.68 51 0 51 C0 34.17 0 17.34 0 0 Z " fill="#E3B47F" transform="translate(233,248)"/>
<path d="M0 0 C0.99 0.33 1.98 0.66 3 1 C3.9140625 4.125 3.9140625 4.125 4.625 8 C5.08625139 12.32655949 5.08625139 12.32655949 7 16 C7.49479689 18.47696516 7.94742228 20.9488575 8.375 23.4375 C9.38079424 29.09816289 10.58993787 34.53048443 12.44921875 39.984375 C13 42 13 42 13 46 C16.63 46 20.26 46 24 46 C23.01 42.535 23.01 42.535 22 39 C22.61875 38.814375 23.2375 38.62875 23.875 38.4375 C27.05602866 36.28562767 27.19451947 33.62466237 28 30 C29.63129887 34.06285757 28.29968777 37.20102184 27.0625 41.25 C26.68222656 42.51328125 26.30195313 43.7765625 25.91015625 45.078125 C25.60980469 46.04234375 25.30945313 47.0065625 25 48 C20.71 48 16.42 48 12 48 C7.76935107 32.05255387 3.79047153 16.05770497 0 0 Z " fill="#29152D" transform="translate(234,251)"/>
<path d="M0 0 C0.66 0 1.32 0 2 0 C2.763125 0.804375 3.52625 1.60875 4.3125 2.4375 C7.96669587 5.92173327 10.34687092 5.90462717 15.25 6.1875 C18.9484676 6.98883465 20.2991338 7.76650558 23.25 9.9375 C27.63231896 13.09579194 31.50475524 13.99019755 36.8125 14.67578125 C39 15 39 15 40 16 C41.34747084 16.23075082 42.70377565 16.41153063 44.0625 16.5625 C45.361875 16.706875 46.66125 16.85125 48 17 C48 17.66 48 18.32 48 19 C41.36838355 18.43119334 35.31486004 17.19183591 28.9375 15.3125 C28.02863037 15.04848389 27.11976074 14.78446777 26.18334961 14.51245117 C15.82944216 11.44539995 5.60939068 7.97340983 -4 3 C-2.68 2.67 -1.36 2.34 0 2 C0 1.34 0 0.68 0 0 Z " fill="#F1C26A" transform="translate(176,434)"/>
<path d="M0 0 C0.33 0 0.66 0 1 0 C1 15.84 1 31.68 1 48 C0.67 48 0.34 48 0 48 C-0.33 39.42 -0.66 30.84 -1 22 C-1.99 22 -2.98 22 -4 22 C-4 23.65 -4 25.3 -4 27 C-4.66 27 -5.32 27 -6 27 C-5.37547911 20.79786153 -4.0842258 15.00570586 -2.4375 9 C-2.20353516 8.12988281 -1.96957031 7.25976562 -1.72851562 6.36328125 C-1.15709256 4.24085272 -0.58085043 2.11986406 0 0 Z " fill="#E4AD74" transform="translate(271,250)"/>
<path d="M0 0 C0.66 0.33 1.32 0.66 2 1 C1.0625 2.875 1.0625 2.875 -1 5 C-3.95485056 5.95351561 -6.9369519 6.51196718 -10 7 C-10 7.66 -10 8.32 -10 9 C-10.804375 9.28875 -11.60875 9.5775 -12.4375 9.875 C-15.1326468 10.73262568 -15.1326468 10.73262568 -16 13 C-16.99 12.67 -17.98 12.34 -19 12 C-20.77811812 12.75175783 -20.77811812 12.75175783 -22.5 13.9375 C-25.08494379 15.60977723 -25.78779497 16 -29 16 C-29.33 17.32 -29.66 18.64 -30 20 C-32.97 20.66 -35.94 21.32 -39 22 C-35.83893544 18.53453663 -32.31937586 16.12180184 -28.3125 13.75 C-27.66764648 13.36521484 -27.02279297 12.98042969 -26.35839844 12.58398438 C-18.04740693 7.72696304 -9.14547846 3.04849282 0 0 Z " fill="#F2C468" transform="translate(186,83)"/>
<path d="M0 0 C3.7434375 -0.0309375 3.7434375 -0.0309375 7.5625 -0.0625 C8.71987671 -0.07615601 8.71987671 -0.07615601 9.90063477 -0.09008789 C21.15634942 -0.1345542 21.15634942 -0.1345542 25.4375 2.5 C27.4329176 5.69266816 27.52115764 8.07976843 27.62890625 11.78125 C27 14 27 14 25.171875 16.265625 C20.41287966 18.86783428 16.01359678 18.4271958 10.6875 18.25 C9.14739258 18.22292969 9.14739258 18.22292969 7.57617188 18.1953125 C5.05037929 18.14832101 2.52506863 18.07658169 0 18 C0 12.06 0 6.12 0 0 Z M1 2 C1 6.95 1 11.9 1 17 C4.25022232 17.05397048 7.49954753 17.09365955 10.75 17.125 C11.67039063 17.14175781 12.59078125 17.15851563 13.5390625 17.17578125 C14.42851562 17.18222656 15.31796875 17.18867188 16.234375 17.1953125 C17.45979004 17.21102295 17.45979004 17.21102295 18.70996094 17.22705078 C21.21887518 16.97829916 22.83395625 16.25700129 25 15 C25.17791204 10.46324303 25.0461125 7.092225 23 3 C21.99440206 1.77215191 21.99440206 1.77215191 19.95874023 1.88647461 C18.64691772 1.89432983 18.64691772 1.89432983 17.30859375 1.90234375 C16.36435547 1.90556641 15.42011719 1.90878906 14.44726562 1.91210938 C12.95743164 1.92467773 12.95743164 1.92467773 11.4375 1.9375 C10.44041016 1.94201172 9.44332031 1.94652344 8.41601562 1.95117188 C5.94398513 1.96299977 3.47198528 1.98093585 1 2 Z " fill="#DA9167" transform="translate(142,265)"/>
<path d="M0 0 C0.66 0.33 1.32 0.66 2 1 C-4.97204893 7.8386706 -12.12593775 14.0649148 -20.125 19.6875 C-20.85904053 20.2040918 -21.59308105 20.72068359 -22.34936523 21.25292969 C-25.2606251 23.26181768 -27.62183034 24.87394345 -31 26 C-30.67 24.68 -30.34 23.36 -30 22 C-29.34 22 -28.68 22 -28 22 C-27.67 21.01 -27.34 20.02 -27 19 C-26.34 19 -25.68 19 -25 19 C-25 18.34 -25 17.68 -25 17 C-22 16 -22 16 -19 17 C-19 16.01 -19 15.02 -19 14 C-18.01 13.67 -17.02 13.34 -16 13 C-16 12.34 -16 11.68 -16 11 C-13.09451118 8.95830515 -11.59857954 8 -8 8 C-8 7.34 -8 6.68 -8 6 C-7.01 6 -6.02 6 -5 6 C-5 4.35 -5 2.7 -5 1 C-3 0 -3 0 0 0 Z " fill="#EE9F5E" transform="translate(390,401)"/>
<path d="M0 0 C1.98 0 3.96 0 6 0 C6.144375 0.78375 6.28875 1.5675 6.4375 2.375 C6.87798925 4.96421018 6.87798925 4.96421018 8 7 C8.15720097 9.9148537 8.25855654 12.80939636 8.31640625 15.7265625 C8.33718735 16.58937836 8.35796844 17.45219421 8.37937927 18.34115601 C8.44486034 21.10235493 8.50375298 23.86365038 8.5625 26.625 C8.6056866 28.49480172 8.64930093 30.36459362 8.69335938 32.234375 C8.80054024 36.82281728 8.90181175 41.41135683 9 46 C5.25454655 42.25454655 5.85860339 37.88428968 5.7890625 32.78515625 C5.76099991 31.36261858 5.73233548 29.94009268 5.703125 28.51757812 C5.66187149 26.28816995 5.62495847 24.05898303 5.59863281 21.8293457 C5.57094278 19.66832931 5.52508651 17.50829208 5.4765625 15.34765625 C5.45674316 14.05867432 5.43692383 12.76969238 5.41650391 11.44165039 C4.97421196 7.78690859 4.11944717 5.96054398 2 3 C1.34 2.01 0.68 1.02 0 0 Z " fill="#EAA771" transform="translate(331,252)"/>
<path d="M0 0 C1.41655793 -0.0272415 2.83327045 -0.04650467 4.25 -0.0625 C5.43335938 -0.07990234 5.43335938 -0.07990234 6.640625 -0.09765625 C9 0 9 0 13 1 C13 4.3 13 7.6 13 11 C12.34 9.68 11.68 8.36 11 7 C10.34 8.98 9.68 10.96 9 13 C8.38511719 12.91621094 7.77023437 12.83242188 7.13671875 12.74609375 C6.32847656 12.64425781 5.52023437 12.54242188 4.6875 12.4375 C3.88699219 12.33308594 3.08648437 12.22867187 2.26171875 12.12109375 C-0.16817116 11.85244822 -0.16817116 11.85244822 -3 13 C-2.67 12.01 -2.34 11.02 -2 10 C1.5625 8.8125 1.5625 8.8125 5 8 C5 5.69 5 3.38 5 1 C3.35 1 1.7 1 0 1 C0 0.67 0 0.34 0 0 Z " fill="#201147" transform="translate(368,250)"/>
<path d="M0 0 C0.33 0 0.66 0 1 0 C0.50725113 10.01922694 -2.32490993 19.38546963 -5 29 C-5.33 29 -5.66 29 -6 29 C-6 25.33333333 -6 21.66666667 -6 18 C-6.33 17.01 -6.66 16.02 -7 15 C-6.34 14.67 -5.68 14.34 -5 14 C-5.66 13.01 -6.32 12.02 -7 11 C-7.125 8.3125 -7.125 8.3125 -7 6 C-5.02 5.67 -3.04 5.34 -1 5 C-0.67 3.35 -0.34 1.7 0 0 Z M-3 10 C-2 12 -2 12 -2 12 Z " fill="#EA925C" transform="translate(447,292)"/>
<path d="M0 0 C5.26447076 4.27445592 9.58118758 8.77459381 13.8125 14.0625 C14.38419922 14.75666016 14.95589844 15.45082031 15.54492188 16.16601562 C18.34259094 19.62776124 20.67684786 22.67657932 22 27 C19.6875 26.4375 19.6875 26.4375 17 25 C16.54625 23.865625 16.0925 22.73125 15.625 21.5625 C13.89435947 17.70708126 13.89435947 17.70708126 10.375 16.25 C9.26125 15.8375 8.1475 15.425 7 15 C6.67 14.01 6.34 13.02 6 12 C5.34 11.67 4.68 11.34 4 11 C2.2937904 7.38283565 0.90180882 3.89066089 0 0 Z " fill="#ED995D" transform="translate(394,127)"/>
<path d="M0 0 C2 2 2 2 2 6 C0.35 6 -1.3 6 -3 6 C-3 6.66 -3 7.32 -3 8 C-5.97 8 -8.94 8 -12 8 C-11.6875 5.125 -11.6875 5.125 -11 2 C-6.93150591 -0.71232939 -4.83523216 -0.30699887 0 0 Z " fill="#FCAB51" transform="translate(321,261)"/>
<path d="M0 0 C0 1.65 0 3.3 0 5 C-0.66 5 -1.32 5 -2 5 C-2.33 5.66 -2.66 6.32 -3 7 C-3 6.01 -3 5.02 -3 4 C-7.7897321 3.76571687 -7.7897321 3.76571687 -12 6 C-12.99 5.67 -13.98 5.34 -15 5 C-15.33 5.33 -15.66 5.66 -16 6 C-17.41041225 6.32054824 -18.82871443 6.60674411 -20.25 6.875 C-23.27404656 7.50082954 -25.03263375 8.02049096 -27.6875 9.6875 C-30.7888306 11.44771466 -32.63025904 10.86202676 -36 10 C-33.43184716 8.28789811 -31.73295429 7.46687392 -28.8671875 6.5625 C-27.65675781 6.17964844 -27.65675781 6.17964844 -26.421875 5.7890625 C-25.58140625 5.52867188 -24.7409375 5.26828125 -23.875 5 C-23.05773437 4.73960938 -22.24046875 4.47921875 -21.3984375 4.2109375 C-6.59861144 -0.42571687 -6.59861144 -0.42571687 0 0 Z " fill="#F4C267" transform="translate(224,73)"/>
<path d="M0 0 C0.98871094 -0.01417969 1.97742188 -0.02835937 2.99609375 -0.04296875 C5.5625 0.1875 5.5625 0.1875 7.5625 2.1875 C7.6875 5.3125 7.6875 5.3125 7.5625 8.1875 C5.5825 8.5175 3.6025 8.8475 1.5625 9.1875 C1.5625 8.5275 1.5625 7.8675 1.5625 7.1875 C3.2125 7.1875 4.8625 7.1875 6.5625 7.1875 C5.9025 5.5375 5.2425 3.8875 4.5625 2.1875 C3.28375 2.166875 2.005 2.14625 0.6875 2.125 C-0.03179687 2.11339844 -0.75109375 2.10179687 -1.4921875 2.08984375 C-3.51935404 2.06100758 -3.51935404 2.06100758 -5.4375 3.1875 C-6.16443904 5.16638961 -6.83566251 7.16704558 -7.4375 9.1875 C-4.7975 9.1875 -2.1575 9.1875 0.5625 9.1875 C0.5625 9.5175 0.5625 9.8475 0.5625 10.1875 C-3.7275 11.1775 -8.0175 12.1675 -12.4375 13.1875 C-12.7675 12.5275 -13.0975 11.8675 -13.4375 11.1875 C-11.7875 11.1875 -10.1375 11.1875 -8.4375 11.1875 C-8.7675 9.8675 -9.0975 8.5475 -9.4375 7.1875 C-11.4175 7.5175 -13.3975 7.8475 -15.4375 8.1875 C-15.7675 7.1975 -16.0975 6.2075 -16.4375 5.1875 C-17.7575 4.8575 -19.0775 4.5275 -20.4375 4.1875 C-16.4775 4.5175 -12.5175 4.8475 -8.4375 5.1875 C-7.7775 3.8675 -7.1175 2.5475 -6.4375 1.1875 C-4.69900372 -0.55099628 -2.3588363 0.01533704 0 0 Z " fill="#E5A46A" transform="translate(316.4375,259.8125)"/>
<path d="M0 0 C1.60294922 0.15275391 1.60294922 0.15275391 3.23828125 0.30859375 C4.45064453 0.43427734 4.45064453 0.43427734 5.6875 0.5625 C5.6875 0.8925 5.6875 1.2225 5.6875 1.5625 C-0.2525 2.0575 -0.2525 2.0575 -6.3125 2.5625 C-6.6425 18.0725 -6.9725 33.5825 -7.3125 49.5625 C-7.6425 49.5625 -7.9725 49.5625 -8.3125 49.5625 C-8.8075 28.7725 -8.8075 28.7725 -9.3125 7.5625 C-9.9725 7.2325 -10.6325 6.9025 -11.3125 6.5625 C-11.3125 4.5825 -11.3125 2.6025 -11.3125 0.5625 C-7.36602382 -0.42594951 -4.03857036 -0.39941905 0 0 Z " fill="#F8A55C" transform="translate(355.3125,248.4375)"/>
<path d="M0 0 C-0.33 1.65 -0.66 3.3 -1 5 C-2.65 4.01 -4.3 3.02 -6 2 C-6 2.99 -6 3.98 -6 5 C-5.01 5.33 -4.02 5.66 -3 6 C-3 6.66 -3 7.32 -3 8 C-3.99 8 -4.98 8 -6 8 C-6 8.66 -6 9.32 -6 10 C-8 11.625 -8 11.625 -10 13 C-11 12 -11 12 -11.09765625 9.93359375 C-11.08605469 9.10988281 -11.07445312 8.28617187 -11.0625 7.4375 C-11.05347656 6.61121094 -11.04445313 5.78492188 -11.03515625 4.93359375 C-11.02355469 4.29550781 -11.01195312 3.65742188 -11 3 C-10.34 3 -9.68 3 -9 3 C-8.67 2.01 -8.34 1.02 -8 0 C-5.13822943 -1.43088528 -3.06624227 -0.59991697 0 0 Z " fill="#161253" transform="translate(308,276)"/>
<path d="M0 0 C2.45823172 3.68734758 3.01242616 6.69699971 4 11 C4.66 9.68 5.32 8.36 6 7 C6.66 7 7.32 7 8 7 C7.07506212 10.78383679 6.60628829 12.56693694 3.375 14.875 C2.59125 15.24625 1.8075 15.6175 1 16 C0.67 15.67 0.34 15.34 0 15 C-2.46266855 14.78841034 -4.90772884 14.62382216 -7.375 14.5 C-14.60005543 14.13331486 -14.60005543 14.13331486 -18 13 C-17.67 12.34 -17.34 11.68 -17 11 C-16.01 11.33 -15.02 11.66 -14 12 C-11.60509014 12.06970052 -9.20832309 12.08448003 -6.8125 12.0625 C-5.54019531 12.05347656 -4.26789063 12.04445313 -2.95703125 12.03515625 C-1.98121094 12.02355469 -1.00539063 12.01195312 0 12 C0 8.7 0 5.4 0 2 C-0.66 1.67 -1.32 1.34 -2 1 C-1.34 0.67 -0.68 0.34 0 0 Z " fill="#E5915D" transform="translate(408,287)"/>
<path d="M0 0 C1.6387207 0.05414063 1.6387207 0.05414063 3.31054688 0.109375 C11.34873165 0.48577798 11.34873165 0.48577798 13.64575195 2.41357422 C14.03077881 2.89584473 14.41580566 3.37811523 14.8125 3.875 C14.14863281 3.71515625 13.48476563 3.5553125 12.80078125 3.390625 C2.69534936 1.64694263 -7.99937385 1.69801485 -16.6875 7.5625 C-17.1825 7.995625 -17.6775 8.42875 -18.1875 8.875 C-18.1875 6.895 -18.1875 4.915 -18.1875 2.875 C-12.38132639 -1.03631416 -6.78920466 -0.37245488 0 0 Z " fill="#EEA662" transform="translate(316.1875,248.125)"/>
<path d="M0 0 C0.99 0.66 1.98 1.32 3 2 C3 3.32 3 4.64 3 6 C-0.73725919 7.24575306 -4.08852457 7.48893443 -8 7 C-10 5.5 -10 5.5 -11 4 C-8.94006922 -0.11986157 -4.11800376 -1.37266792 0 0 Z " fill="#191151" transform="translate(404,292)"/>
<path d="M0 0 C2.30598249 3.45897374 3.19769805 6.84313925 4.234375 10.80859375 C4.43605286 11.57172379 4.63773071 12.33485382 4.84552002 13.12110901 C5.26880245 14.73332074 5.68887363 16.34637853 6.10595703 17.96020508 C6.74770575 20.42867524 7.41052655 22.89086825 8.07421875 25.35351562 C8.48308153 26.92153382 8.89067654 28.48988325 9.296875 30.05859375 C9.49778748 30.79411972 9.69869995 31.52964569 9.90570068 32.28746033 C10.68505942 35.38343199 11.20033845 37.4403113 10.10644531 40.49633789 C9.74131836 40.99254639 9.37619141 41.48875488 9 42 C8.82984375 41.18917969 8.6596875 40.37835938 8.484375 39.54296875 C7.29674399 34.11650576 6.07339331 28.94824346 3.9375 23.8125 C0.98908054 16.22116713 0.67289408 8.04816735 0 0 Z " fill="#3F2639" transform="translate(241,235)"/>
<path d="M0 0 C0.99 0.495 0.99 0.495 2 1 C2.03758423 2.11072876 2.03758423 2.11072876 2.07592773 3.24389648 C2.1929172 6.64189649 2.31517147 10.03968817 2.4375 13.4375 C2.47681641 14.60216797 2.51613281 15.76683594 2.55664062 16.96679688 C2.79077501 23.36046672 3.19215648 29.65265809 4 36 C1.7522025 33.94766315 0.9977758 32.99332739 0 30 C-0.08378628 27.7161483 -0.10729915 25.429899 -0.09765625 23.14453125 C-0.0962413 22.48289474 -0.09482635 21.82125824 -0.09336853 21.13957214 C-0.08777996 19.03050172 -0.07522965 16.92153823 -0.0625 14.8125 C-0.05748352 13.38086091 -0.05292087 11.94922015 -0.04882812 10.51757812 C-0.0378143 7.01168412 -0.02055755 3.5058525 0 0 Z " fill="#3E2242" transform="translate(386,261)"/>
<path d="M0 0 C-0.83144531 0.39832031 -0.83144531 0.39832031 -1.6796875 0.8046875 C-2.76636719 1.33449219 -2.76636719 1.33449219 -3.875 1.875 C-4.59429687 2.22304687 -5.31359375 2.57109375 -6.0546875 2.9296875 C-8.15135019 3.96557543 -8.15135019 3.96557543 -10 6 C-10.64767793 8.57061311 -10.64767793 8.57061311 -11 11 C-8.69 11 -6.38 11 -4 11 C-3.34 9.35 -2.68 7.7 -2 6 C1.96 6.33 5.92 6.66 10 7 C10 7.33 10 7.66 10 8 C9.07767578 8.03867187 9.07767578 8.03867187 8.13671875 8.078125 C7.32847656 8.13484375 6.52023437 8.1915625 5.6875 8.25 C4.88699219 8.29640625 4.08648437 8.3428125 3.26171875 8.390625 C0.818202 8.78568063 0.818202 8.78568063 -0.40625 11.0625 C-0.9321875 11.701875 -1.458125 12.34125 -2 13 C-4.91796875 13.171875 -4.91796875 13.171875 -8.1875 12.75 C-9.81751953 12.55664062 -9.81751953 12.55664062 -11.48046875 12.359375 C-12.31191406 12.24078125 -13.14335937 12.1221875 -14 12 C-13.23719929 7.06275143 -11.47345336 4.63500933 -8 1 C-4.89054517 -1.16719579 -3.54102766 -1.00856713 0 0 Z " fill="#3D1E34" transform="translate(310,252)"/>
<path d="M0 0 C0.99 0.33 1.98 0.66 3 1 C3.9140625 4.125 3.9140625 4.125 4.625 8 C5.08625139 12.32655949 5.08625139 12.32655949 7 16 C7.52040183 18.49792879 7.99455778 20.98821066 8.4375 23.5 C9.50130268 29.36691425 10.65136598 35.19049963 12 41 C11.34 41 10.68 41 10 41 C6.7 27.47 3.4 13.94 0 0 Z " fill="#331D34" transform="translate(234,251)"/>
<path d="M0 0 C4.12417063 1.6616804 7.06554039 4.62338018 10.25 7.625 C10.80429687 8.140625 11.35859375 8.65625 11.9296875 9.1875 C13.2902712 10.45425035 14.64565837 11.72657815 16 13 C15.01 13.33 14.02 13.66 13 14 C13 13.34 13 12.68 13 12 C11.35 12.33 9.7 12.66 8 13 C6.9375 10.625 6.9375 10.625 6 8 C6.33 7.34 6.66 6.68 7 6 C2.89776415 4.98459888 2.89776415 4.98459888 -1 6 C-0.67 4.02 -0.34 2.04 0 0 Z " fill="#EBA062" transform="translate(378,113)"/>
<path d="M0 0 C0 1.98 0 3.96 0 6 C2.97 6.495 2.97 6.495 6 7 C5.34 7.66 4.68 8.32 4 9 C3.34 8.67 2.68 8.34 2 8 C1.67 8.66 1.34 9.32 1 10 C-0.65 10 -2.3 10 -4 10 C-4 9.34 -4 8.68 -4 8 C-4.99 7.67 -5.98 7.34 -7 7 C-7 6.67 -7 6.34 -7 6 C-8.32 5.67 -9.64 5.34 -11 5 C-9.35538655 4.16426177 -7.70927487 3.33147118 -6.0625 2.5 C-4.68771484 1.80390625 -4.68771484 1.80390625 -3.28515625 1.09375 C-1 0 -1 0 0 0 Z " fill="#EFA45B" transform="translate(326,294)"/>
<path d="M0 0 C0.66 0.33 1.32 0.66 2 1 C4.0374763 1.22858114 6.08040303 1.41024278 8.125 1.5625 C9.76855469 1.68818359 9.76855469 1.68818359 11.4453125 1.81640625 C12.28835938 1.87699219 13.13140625 1.93757813 14 2 C6.78361819 6.16868658 -2.8373342 6.32010454 -11 6 C-11 5.34 -11 4.68 -11 4 C-6.545 3.505 -6.545 3.505 -2 3 C-2 2.34 -2 1.68 -2 1 C-1.34 0.67 -0.68 0.34 0 0 Z " fill="#F1B15E" transform="translate(285,449)"/>
<path d="M0 0 C3 2 3 2 3.84375 5.37890625 C4.07320521 6.7717161 4.29137906 8.16641753 4.5 9.5625 C5.5123827 15.6367962 6.87371955 21.20105333 9 27 C9.7109375 29.046875 9.7109375 29.046875 10 31 C9.01 32.485 9.01 32.485 8 34 C6.85602518 29.64125819 5.71682533 25.28130705 4.58203125 20.92016602 C4.19532135 19.43675073 3.80730913 17.95367432 3.41796875 16.47094727 C2.85854804 14.33958289 2.30382301 12.20704354 1.75 10.07421875 C1.57500977 9.41161545 1.40001953 8.74901215 1.21972656 8.06632996 C0.50088942 5.28185301 0 2.8909461 0 0 Z " fill="#E7B074" transform="translate(244,243)"/>
<path d="M0 0 C1.10085938 -0.00257813 2.20171875 -0.00515625 3.3359375 -0.0078125 C6.51496116 0.12055663 9.50272455 0.53073005 12.625 1.125 C12.625 1.455 12.625 1.785 12.625 2.125 C5.875 3.25 5.875 3.25 3.625 2.125 C-0.98022505 1.5730968 -4.33878772 1.4635879 -8.3125 4 C-8.993125 4.70125 -9.67375 5.4025 -10.375 6.125 C-11.035 6.785 -11.695 7.445 -12.375 8.125 C-12.375 6.145 -12.375 4.165 -12.375 2.125 C-16.335 2.125 -20.295 2.125 -24.375 2.125 C-24.375 1.795 -24.375 1.465 -24.375 1.125 C-23.41078125 1.13660156 -22.4465625 1.14820313 -21.453125 1.16015625 C-19.55820312 1.17369141 -19.55820312 1.17369141 -17.625 1.1875 C-15.74554688 1.20490234 -15.74554688 1.20490234 -13.828125 1.22265625 C-9.1138473 1.08933392 -4.77715616 -0.01113556 0 0 Z " fill="#D89670" transform="translate(373.375,248.875)"/>
<path d="M0 0 C0 5.28 0 10.56 0 16 C-0.33 16 -0.66 16 -1 16 C-1.33 11.71 -1.66 7.42 -2 3 C-7.13556816 5.07566521 -7.13556816 5.07566521 -10.1328125 9.4921875 C-10.85988634 11.98400368 -11.49009879 14.45535018 -12 17 C-12.33 17 -12.66 17 -13 17 C-13.77563087 13.43066166 -14.04024298 10.5306769 -13 7 C-9.80130428 4.30361798 -4.40188178 0 0 0 Z " fill="#3B1832" transform="translate(399,234)"/>
<path d="M0 0 C2.52181288 0.28457432 5.04221196 0.57745058 7.5625 0.875 C8.26697266 0.95363281 8.97144531 1.03226562 9.69726562 1.11328125 C14.3131709 1.66633903 18.56176603 2.61195836 23 4 C22.01 4.66 21.02 5.32 20 6 C20 5.34 20 4.68 20 4 C19.30132812 4 18.60265625 4 17.8828125 4 C14.58854167 4 11.29427083 4 8 4 C7.67 4.33 7.34 4.66 7 5 C4.66702567 5.04092937 2.33294775 5.04241723 0 5 C0 3.35 0 1.7 0 0 Z " fill="#FAAF52" transform="translate(288,73)"/>
<path d="M0 0 C0.66 0.33 1.32 0.66 2 1 C1.67 1.66 1.34 2.32 1 3 C2.32 4.32 3.64 5.64 5 7 C3.5882217 7.53394179 2.17029756 8.05165104 0.75 8.5625 C-0.03890625 8.85253906 -0.8278125 9.14257812 -1.640625 9.44140625 C-4.19103452 10.04522837 -5.55322229 9.8473932 -8 9 C-7.34 9 -6.68 9 -6 9 C-6.33 8.01 -6.66 7.02 -7 6 C-6.01 5.67 -5.02 5.34 -4 5 C-2.61423077 3.37667033 -1.27358732 1.71275535 0 0 Z " fill="#FCAB4F" transform="translate(319,438)"/>
<path d="M0 0 C2.24034237 3.73390395 1.8268051 7.25153372 1.5 11.5 C0.51 11.995 0.51 11.995 -0.5 12.5 C-0.69916016 11.32630859 -0.69916016 11.32630859 -0.90234375 10.12890625 C-1.16724609 8.61103516 -1.16724609 8.61103516 -1.4375 7.0625 C-1.61152344 6.05316406 -1.78554687 5.04382813 -1.96484375 4.00390625 C-2.24751097 1.5712562 -2.24751097 1.5712562 -3.5 0.5 C-5.05948542 0.34313751 -6.62542668 0.24923361 -8.19140625 0.18359375 C-9.13564453 0.14169922 -10.07988281 0.09980469 -11.05273438 0.05664062 C-12.04595703 0.01732422 -13.03917969 -0.02199219 -14.0625 -0.0625 C-15.05958984 -0.10568359 -16.05667969 -0.14886719 -17.08398438 -0.19335938 C-19.5558415 -0.29980298 -22.0278031 -0.40181928 -24.5 -0.5 C-24.5 -0.83 -24.5 -1.16 -24.5 -1.5 C-5.40532304 -3.24319382 -5.40532304 -3.24319382 0 0 Z " fill="#EB9260" transform="translate(167.5,267.5)"/>
<path d="M0 0 C0.25 2.3125 0.25 2.3125 0 5 C-0.65258789 5.42708252 -1.30517578 5.85416504 -1.97753906 6.29418945 C-4.26780747 7.86648795 -4.26780747 7.86648795 -4.54589844 10.72729492 C-4.5668457 11.80084229 -4.58779297 12.87438965 -4.609375 13.98046875 C-4.64160156 15.14384766 -4.67382812 16.30722656 -4.70703125 17.50585938 C-4.72121094 18.72080078 -4.73539062 19.93574219 -4.75 21.1875 C-4.77964844 22.41404297 -4.80929687 23.64058594 -4.83984375 24.90429688 C-4.91062899 27.93626453 -4.96328413 30.96745933 -5 34 C-5.33 34 -5.66 34 -6 34 C-6.11647041 29.45855006 -6.18734502 24.91748606 -6.25 20.375 C-6.28351563 19.08980469 -6.31703125 17.80460937 -6.3515625 16.48046875 C-6.46209613 5.81397312 -6.46209613 5.81397312 -4.109375 2.1015625 C-2 0 -2 0 0 0 Z " fill="#ED9E65" transform="translate(368,264)"/>
<path d="M0 0 C0.99 0.33 1.98 0.66 3 1 C2.67 1.33 2.34 1.66 2 2 C1.63239269 4.32817964 1.29758419 6.6618385 1 9 C0.34 9 -0.32 9 -1 9 C-0.95875 10.175625 -0.9175 11.35125 -0.875 12.5625 C-0.86016365 16.72409674 -1.68829222 20.06487667 -3 24 C-3.66 24 -4.32 24 -5 24 C-5.33 24.99 -5.66 25.98 -6 27 C-5.37547911 20.79786153 -4.0842258 15.00570586 -2.4375 9 C-2.20353516 8.12988281 -1.96957031 7.25976562 -1.72851562 6.36328125 C-1.15709256 4.24085272 -0.58085043 2.11986406 0 0 Z " fill="#382139" transform="translate(262,240)"/>
<path d="M0 0 C1.63001953 0.01353516 1.63001953 0.01353516 3.29296875 0.02734375 C4.12441406 0.03894531 4.95585937 0.05054688 5.8125 0.0625 C5.8125 0.3925 5.8125 0.7225 5.8125 1.0625 C5.08804688 1.09988281 4.36359375 1.13726562 3.6171875 1.17578125 C-2.02140797 1.55920574 -6.24686307 2.09811784 -11.1875 5.0625 C-12.1775 5.3925 -13.1675 5.7225 -14.1875 6.0625 C-14.90477778 7.70801962 -15.57075228 9.37672289 -16.1875 11.0625 C-16.8475 11.7225 -17.5075 12.3825 -18.1875 13.0625 C-18.90677295 15.38015729 -19.5784893 17.71345874 -20.1875 20.0625 C-21.51459834 17.04636742 -21.11207017 15.83201997 -20.0625 12.625 C-17.71399484 7.61700041 -13.74394294 4.10012863 -9.1875 1.0625 C-5.90230525 -0.03256492 -3.45086585 -0.03710608 0 0 Z " fill="#F59B45" transform="translate(155.1875,197.9375)"/>
<path d="M0 0 C1.1446875 0.2475 1.1446875 0.2475 2.3125 0.5 C8.13321174 1.28924905 14.37391674 1.87536109 20 0 C20 0.99 20 1.98 20 3 C13.4 3.33 6.8 3.66 0 4 C-0.33 6.97 -0.66 9.94 -1 13 C-3 9 -3 9 -2.5390625 6.640625 C-2.23742187 5.85171875 -1.93578125 5.0628125 -1.625 4.25 C-1.32851562 3.45078125 -1.03203125 2.6515625 -0.7265625 1.828125 C-0.48679687 1.22484375 -0.24703125 0.6215625 0 0 Z " fill="#FEC75C" transform="translate(113,216)"/>
<path d="M0 0 C2 1.375 2 1.375 4 3 C4 3.66 4 4.32 4 5 C4.99 5 5.98 5 7 5 C7 6.32 7 7.64 7 9 C4.36 9 1.72 9 -1 9 C-1.33 7.68 -1.66 6.36 -2 5 C-1.34 5 -0.68 5 0 5 C-0.2784375 4.0409375 -0.2784375 4.0409375 -0.5625 3.0625 C-0.7790625 2.0415625 -0.7790625 2.0415625 -1 1 C-0.67 0.67 -0.34 0.34 0 0 Z " fill="#FB9D4E" transform="translate(386,295)"/>
<path d="M0 0 C0.66 0.33 1.32 0.66 2 1 C1.48050781 1.44730469 0.96101563 1.89460938 0.42578125 2.35546875 C-3.52679654 5.78201031 -7.35827082 9.24446679 -11 13 C-10.67 13.66 -10.34 14.32 -10 15 C-12.97 14.505 -12.97 14.505 -16 14 C-13.06006416 9.9825634 -9.76235288 7.07197856 -5.75 4.1875 C-4.91855469 3.57745117 -4.91855469 3.57745117 -4.0703125 2.95507812 C-2.71789547 1.96408289 -1.35955093 0.98118534 0 0 Z " fill="#F5CD68" transform="translate(145,105)"/>
<path d="M0 0 C-0.99730136 2.4932534 -1.65074531 3.77467439 -3.9375 5.25 C-6 6 -6 6 -9 6 C-9.33 7.32 -9.66 8.64 -10 10 C-12.97 10.66 -15.94 11.32 -19 12 C-15.85214612 8.55751941 -12.34193723 6.14078806 -8.375 3.75 C-7.78976563 3.38648437 -7.20453125 3.02296875 -6.6015625 2.6484375 C-2.26051457 0 -2.26051457 0 0 0 Z " fill="#F1CB72" transform="translate(166,93)"/>
<path d="M0 0 C0 3.96 0 7.92 0 12 C-0.33 11.01 -0.66 10.02 -1 9 C-1.99 9 -2.98 9 -4 9 C-4 10.65 -4 12.3 -4 14 C-4.66 14 -5.32 14 -6 14 C-4.86124402 4.23923445 -4.86124402 4.23923445 -4 2 C-1 0 -1 0 0 0 Z " fill="#FCB557" transform="translate(271,263)"/>
<path d="M0 0 C3.25836697 3.02562647 5.81492325 6.11541911 8 10 C7.75 12.375 7.75 12.375 7 14 C5.35 13.67 3.7 13.34 2 13 C1.855625 12.113125 1.71125 11.22625 1.5625 10.3125 C1.2184071 8.28617514 0.84938093 6.2636401 0.4375 4.25 C0 2 0 2 0 0 Z M2 5 C3 7 3 7 3 7 Z " fill="#F49656" transform="translate(416,154)"/>
<path d="M0 0 C1.41655793 -0.0272415 2.83327045 -0.04650467 4.25 -0.0625 C5.43335938 -0.07990234 5.43335938 -0.07990234 6.640625 -0.09765625 C9 0 9 0 13 1 C13 4.3 13 7.6 13 11 C12.34 9.68 11.68 8.36 11 7 C10.34 8.98 9.68 10.96 9 13 C7.68 12.34 6.36 11.68 5 11 C5.99 10.34 6.98 9.68 8 9 C9.2188121 5.44327821 9.2188121 5.44327821 10 2 C6.7 1.67 3.4 1.34 0 1 C0 0.67 0 0.34 0 0 Z " fill="#49283C" transform="translate(368,250)"/>
<path d="M0 0 C0.99 0.33 1.98 0.66 3 1 C1.2562572 3.275885 -0.49458423 5.54564631 -2.25 7.8125 C-2.74113281 8.45509766 -3.23226563 9.09769531 -3.73828125 9.75976562 C-6.24380627 12.98354115 -8.51654928 15.76893275 -12 18 C-12 17.01 -12 16.02 -12 15 C-11.34 15 -10.68 15 -10 15 C-10 14.34 -10 13.68 -10 13 C-9.34 13 -8.68 13 -8 13 C-7.5978125 11.7934375 -7.5978125 11.7934375 -7.1875 10.5625 C-6.795625 9.716875 -6.40375 8.87125 -6 8 C-5.01 7.67 -4.02 7.34 -3 7 C-3 5.68 -3 4.36 -3 3 C-2.01 3 -1.02 3 0 3 C0 2.01 0 1.02 0 0 Z " fill="#E89A5F" transform="translate(413,373)"/>
<path d="M0 0 C1.49080078 0.02707031 1.49080078 0.02707031 3.01171875 0.0546875 C3.77097656 0.07789063 4.53023438 0.10109375 5.3125 0.125 C4.9825 1.445 4.6525 2.765 4.3125 4.125 C3.62542969 4.01800781 2.93835938 3.91101563 2.23046875 3.80078125 C1.32941406 3.68089844 0.42835938 3.56101562 -0.5 3.4375 C-1.39332031 3.30988281 -2.28664063 3.18226563 -3.20703125 3.05078125 C-5.75110779 2.86453906 -5.75110779 2.86453906 -7.38671875 4.60546875 C-8.03060547 5.35763672 -8.03060547 5.35763672 -8.6875 6.125 C-9.3475 6.125 -10.0075 6.125 -10.6875 6.125 C-8.35628421 0.74527125 -5.66952152 -0.13340051 0 0 Z " fill="#251643" transform="translate(307.6875,272.875)"/>
<path d="M0 0 C1.63102378 3.26204757 2.70958612 6.02721316 3.6875 9.5 C3.95949219 10.4384375 4.23148438 11.376875 4.51171875 12.34375 C5.00140894 15.00766466 4.88693174 16.47611372 4 19 C3.01 18.67 2.02 18.34 1 18 C0.67 12.06 0.34 6.12 0 0 Z " fill="#E9B067" transform="translate(241,280)"/>
<path d="M0 0 C-1.64108767 3.28217533 -5.17347434 3.9066035 -8.4375 5.1875 C-9.13166016 5.47302734 -9.82582031 5.75855469 -10.54101562 6.05273438 C-12.33611416 6.76695073 -14.16676255 7.39030809 -16 8 C-16.66 7.67 -17.32 7.34 -18 7 C-18 6.34 -18 5.68 -18 5 C-17.113125 4.855625 -16.22625 4.71125 -15.3125 4.5625 C-12.52882354 4.08980022 -9.76516243 3.56929815 -7 3 C-6.67 2.01 -6.34 1.02 -6 0 C-3.50907189 -1.24546405 -2.58919267 -0.7767578 0 0 Z " fill="#EDA763" transform="translate(342,436)"/>
<path d="M0 0 C2.54232342 -0.08152344 5.08199202 -0.14073716 7.625 -0.1875 C8.33785156 -0.21263672 9.05070312 -0.23777344 9.78515625 -0.26367188 C14.6114076 -0.33008818 17.80011486 0.36874666 22 3 C23.875 5.1875 23.875 5.1875 25 7 C24.4225 6.70222656 23.845 6.40445312 23.25 6.09765625 C15.68812862 2.4086183 8.35611056 1.41002911 0 1 C0 0.67 0 0.34 0 0 Z " fill="#331A34" transform="translate(310,250)"/>
<path d="M0 0 C2.97 0.495 2.97 0.495 6 1 C6.33 1.99 6.66 2.98 7 4 C7.78375 4.433125 8.5675 4.86625 9.375 5.3125 C12.62800962 7.40372047 13.51815231 9.49036073 15 13 C11.12207603 11.38419835 8.28921212 8.75734641 5.25 5.9375 C4.74339844 5.47794922 4.23679687 5.01839844 3.71484375 4.54492188 C2.45382769 3.38757425 1.22393107 2.19649813 0 1 C0 0.67 0 0.34 0 0 Z " fill="#F0CF71" transform="translate(120,399)"/>
<path d="M0 0 C2.97 0.33 5.94 0.66 9 1 C9 4.3 9 7.6 9 11 C7.68 10.67 6.36 10.34 5 10 C5.99 10 6.98 10 8 10 C8 8.68 8 7.36 8 6 C7.236875 5.896875 6.47375 5.79375 5.6875 5.6875 C2.81583516 4.95288806 1.76957906 4.3283935 0 2 C0 1.34 0 0.68 0 0 Z " fill="#34173A" transform="translate(399,288)"/>
<path d="M0 0 C0.66 0.99 1.32 1.98 2 3 C-1.4896235 6.4896235 -4.83195656 7.12075821 -9.64453125 7.1953125 C-11.36729635 7.18211123 -13.09000804 7.15839656 -14.8125 7.125 C-15.69615234 7.11597656 -16.57980469 7.10695313 -17.49023438 7.09765625 C-19.66027359 7.07419637 -21.83017247 7.03832865 -24 7 C-24 6.67 -24 6.34 -24 6 C-22.37191406 5.94392578 -22.37191406 5.94392578 -20.7109375 5.88671875 C-19.26559261 5.82102125 -17.82028161 5.75457524 -16.375 5.6875 C-15.66214844 5.66494141 -14.94929687 5.64238281 -14.21484375 5.61914062 C-8.54413243 5.33300382 -4.14797826 4.14797826 0 0 Z " fill="#E38D5A" transform="translate(177,286)"/>
<path d="M0 0 C1.32 0.33 2.64 0.66 4 1 C0.04 4.465 0.04 4.465 -4 8 C-4.99 7.34 -5.98 6.68 -7 6 C-7 4.68 -7 3.36 -7 2 C-9.64 2 -12.28 2 -15 2 C-15 1.67 -15 1.34 -15 1 C-12.03 1 -9.06 1 -6 1 C-5.67 2.32 -5.34 3.64 -5 5 C-4.2575 4.154375 -3.515 3.30875 -2.75 2.4375 C-1.38875 1.2309375 -1.38875 1.2309375 0 0 Z " fill="#2B153F" transform="translate(366,251)"/>
<path d="M0 0 C5.10884605 1.43047689 9.01744261 3.71389694 13.375 6.625 C14.01566406 7.04523438 14.65632813 7.46546875 15.31640625 7.8984375 C16.88155698 8.92629768 18.44134314 9.96231886 20 11 C16.86650268 12.04449911 16.01031744 11.93423645 13 11 C13 10.01 13 9.02 13 8 C11.68 8 10.36 8 9 8 C9 7.34 9 6.68 9 6 C8.01 6 7.02 6 6 6 C6 5.34 6 4.68 6 4 C5.195625 3.71125 4.39125 3.4225 3.5625 3.125 C1 2 1 2 0 0 Z " fill="#E8A264" transform="translate(348,93)"/>
<path d="M0 0 C2 1 2 1 5 3 C4.67 4.32 4.34 5.64 4 7 C2 7 0 7 -2 7 C-2 6.34 -2 5.68 -2 5 C-2.99 4.67 -3.98 4.34 -5 4 C-3.35 2.68 -1.7 1.36 0 0 Z " fill="#FCCD57" transform="translate(147,105)"/>
<path d="M0 0 C1.78139294 3.23606752 2.77180919 6.42657245 3.6875 10 C3.95949219 11.03125 4.23148438 12.0625 4.51171875 13.125 C4.98122716 15.88946552 4.93214283 17.39750728 4 20 C1.96834048 15.66579301 1.47939368 11.71403788 1 7 C0.34 7 -0.32 7 -1 7 C-0.67 4.69 -0.34 2.38 0 0 Z " fill="#DEA96D" transform="translate(236,260)"/>
<path d="M0 0 C-0.66 2.31 -1.32 4.62 -2 7 C-3.32 6.67 -4.64 6.34 -6 6 C-6 4.35 -6 2.7 -6 1 C-4 0 -4 0 0 0 Z " fill="#FC924E" transform="translate(446,297)"/>
<path d="M0 0 C2.35171131 0.59861742 4.6859378 1.26924352 7 2 C7.33 2.66 7.66 3.32 8 4 C6 5.33333333 4 6.66666667 2 8 C1.34 7.67 0.68 7.34 0 7 C0 4.69 0 2.38 0 0 Z " fill="#F2A55A" transform="translate(336,87)"/>
<path d="M0 0 C2.24561002 3.36841503 2.87360724 5.99786651 3.75 9.9375 C4.03359375 11.16339844 4.3171875 12.38929688 4.609375 13.65234375 C5.00400105 17.03428902 4.89814904 18.25593671 3 21 C2.49576443 18.25071558 1.99646574 15.50068857 1.5 12.75 C1.35691406 11.97269531 1.21382812 11.19539062 1.06640625 10.39453125 C0.93105469 9.64042969 0.79570312 8.88632813 0.65625 8.109375 C0.46772461 7.07248535 0.46772461 7.07248535 0.27539062 6.01464844 C0 4 0 4 0 0 Z " fill="#3F2B3C" transform="translate(241,235)"/>
<path d="M0 0 C2.9375 0.8125 2.9375 0.8125 6 2 C7.14077657 5.42232972 7.09815117 8.08673217 7.0625 11.6875 C7.05347656 12.86699219 7.04445312 14.04648438 7.03515625 15.26171875 C7.02355469 16.16535156 7.01195312 17.06898438 7 18 C6.34 18.33 5.68 18.66 5 19 C5.05800781 18.21496094 5.11601562 17.42992187 5.17578125 16.62109375 C5.49235697 9.24940203 5.00276972 5.50304669 0 0 Z " fill="#E69058" transform="translate(172,234)"/>
<path d="M0 0 C0.99 0 1.98 0 3 0 C3.05429959 1.74965358 3.09292823 3.49979787 3.125 5.25 C3.14820313 6.22453125 3.17140625 7.1990625 3.1953125 8.203125 C2.99609096 11.05597744 2.60856195 12.65236904 1 15 C-1.625 15.75 -1.625 15.75 -4 16 C-4.33 15.34 -4.66 14.68 -5 14 C-4.195625 13.525625 -3.39125 13.05125 -2.5625 12.5625 C-0.15246512 11.23099846 -0.15246512 11.23099846 1 10 C1.23192865 8.48530552 1.41215238 6.96245438 1.5625 5.4375 C1.64628906 4.61121094 1.73007812 3.78492188 1.81640625 2.93359375 C1.87699219 2.29550781 1.93757813 1.65742188 2 1 C1.34 0.67 0.68 0.34 0 0 Z " fill="#4C3246" transform="translate(322,276)"/>
<path d="M0 0 C0.33 0 0.66 0 1 0 C1.37634203 6.80203375 0.77471079 11.75690073 -2 18 C-2.66 18 -3.32 18 -4 18 C-2.68 12.06 -1.36 6.12 0 0 Z " fill="#D7A06A" transform="translate(264,277)"/>
<path d="M0 0 C-0.53625 0.2475 -1.0725 0.495 -1.625 0.75 C-4.56363927 2.29665225 -7.24770663 4.1451936 -10 6 C-10.99 6.495 -10.99 6.495 -12 7 C-12 5.02 -12 3.04 -12 1 C-7.93631321 0.22596442 -4.13574827 -0.0984702 0 0 Z " fill="#E1A465" transform="translate(310,250)"/>
<path d="M0 0 C-0.33 0.66 -0.66 1.32 -1 2 C-4.66666667 2 -8.33333333 2 -12 2 C-12 1.34 -12 0.68 -12 0 C-7.22144261 -2.04795317 -4.77855739 -2.04795317 0 0 Z " fill="#FBA54E" transform="translate(353,301)"/>
<path d="M0 0 C0 3.41356386 -0.32916247 5.02155049 -2 8 C-4.25078583 9.61141711 -6.50914849 10.75457424 -9 12 C-7.55575365 8.76138697 -5.74227753 6.38030837 -3.375 3.75 C-2.74335937 3.04359375 -2.11171875 2.3371875 -1.4609375 1.609375 C-0.97882813 1.07828125 -0.49671875 0.5471875 0 0 Z " fill="#F2D475" transform="translate(118,128)"/>
<path d="M0 0 C4.0369867 1.79421631 6.64480474 3.20551875 9 7 C8.01 7 7.02 7 6 7 C6 6.34 6 5.68 6 5 C4.35 5.33 2.7 5.66 1 6 C0.34 4.35 -0.32 2.7 -1 1 C-0.67 0.67 -0.34 0.34 0 0 Z " fill="#F49C56" transform="translate(385,120)"/>
<path d="M0 0 C0.66 0.33 1.32 0.66 2 1 C1.773125 1.928125 1.54625 2.85625 1.3125 3.8125 C0.70847162 6.87598337 0.70847162 6.87598337 2 8.8125 C4.8861383 10.52614462 7.69664046 10.68836231 11 11 C11 11.33 11 11.66 11 12 C9.741875 12.020625 8.48375 12.04125 7.1875 12.0625 C6.47980469 12.07410156 5.77210938 12.08570313 5.04296875 12.09765625 C3 12 3 12 0 11 C-0.19491452 9.54263913 -0.38069358 8.08405407 -0.5625 6.625 C-0.66691406 5.81289063 -0.77132813 5.00078125 -0.87890625 4.1640625 C-1 2 -1 2 0 0 Z " fill="#2F1730" transform="translate(307,280)"/>
<path d="M0 0 C1.32435978 3.97307934 0.18129186 6.80974568 -0.9375 10.6875 C-1.13279297 11.38939453 -1.32808594 12.09128906 -1.52929688 12.81445312 C-2.01199136 14.54508944 -2.50500846 16.27284066 -3 18 C-4.62601393 12.45677069 -3.7447746 7.6682951 -1.4375 2.5 C-0.963125 1.675 -0.48875 0.85 0 0 Z " fill="#EAB075" transform="translate(258,252)"/>
<path d="M0 0 C0 0.66 0 1.32 0 2 C0.66 2.33 1.32 2.66 2 3 C-1.75 4.125 -1.75 4.125 -4 3 C-4 4.32 -4 5.64 -4 7 C-4.99 7 -5.98 7 -7 7 C-7 5.35 -7 3.7 -7 2 C-2.25 0 -2.25 0 0 0 Z " fill="#FB9D4B" transform="translate(392,232)"/>
<path d="M0 0 C1.1875 1.6875 1.1875 1.6875 2 4 C0.625 6.5625 0.625 6.5625 -1 9 C-1 9.99 -1 10.98 -1 12 C-1.66 12 -2.32 12 -3 12 C-2.88648483 10.18674449 -2.75887039 8.37436643 -2.625 6.5625 C-2.55539063 5.55316406 -2.48578125 4.54382813 -2.4140625 3.50390625 C-2.27742188 2.67761719 -2.14078125 1.85132813 -2 1 C-1.34 0.67 -0.68 0.34 0 0 Z " fill="#FCDC5D" transform="translate(70,228)"/>
<path d="M0 0 C3.96 0 7.92 0 12 0 C12 0.66 12 1.32 12 2 C9.69 2 7.38 2 5 2 C4.67 2.66 4.34 3.32 4 4 C4 3.34 4 2.68 4 2 C2.68 2 1.36 2 0 2 C0 1.34 0 0.68 0 0 Z " fill="#F0A475" transform="translate(350,299)"/>
<path d="M0 0 C0.33 0 0.66 0 1 0 C1.22184509 3.88228914 0.53447513 6.45152626 -1 10 C-1 10.66 -1 11.32 -1 12 C-2.32 12.33 -3.64 12.66 -5 13 C-4.54554036 11.58208592 -4.08625056 10.16571954 -3.625 8.75 C-3.24214844 7.56664062 -3.24214844 7.56664062 -2.8515625 6.359375 C-2.04826333 4.13372042 -1.10288338 2.09068328 0 0 Z " fill="#F2D573" transform="translate(84,176)"/>
<path d="M0 0 C0.99 0 1.98 0 3 0 C2.4740625 0.804375 2.4740625 0.804375 1.9375 1.625 C0.71075751 4.73274763 1.27143569 6.79431703 2 10 C1.01 10.33 0.02 10.66 -1 11 C-2.23076923 4.6 -2.23076923 4.6 -1.0625 1.5625 C-0.711875 1.046875 -0.36125 0.53125 0 0 Z " fill="#FBD35D" transform="translate(119,127)"/>
<path d="M0 0 C-3.60051153 2.40034102 -6.96144535 4.32187705 -11.375 3.625 C-11.91125 3.41875 -12.4475 3.2125 -13 3 C-12.34 3 -11.68 3 -11 3 C-11 2.34 -11 1.68 -11 1 C-3.57142857 -1.42857143 -3.57142857 -1.42857143 0 0 Z " fill="#EBA963" transform="translate(324,444)"/>
<path d="M0 0 C2.31 0 4.62 0 7 0 C3.4912812 3.09592835 0.50802601 4.74194623 -4 6 C-4 5.34 -4 4.68 -4 4 C-3.01 4 -2.02 4 -1 4 C-0.67 2.68 -0.34 1.36 0 0 Z " fill="#EBA463" transform="translate(352,427)"/>
<path d="M0 0 C3.96 0 7.92 0 12 0 C12 0.99 12 1.98 12 3 C10.18674449 2.88648483 8.37436643 2.75887039 6.5625 2.625 C5.04849609 2.52058594 5.04849609 2.52058594 3.50390625 2.4140625 C2.67761719 2.27742188 1.85132813 2.14078125 1 2 C0.67 1.34 0.34 0.68 0 0 Z " fill="#EFB477" transform="translate(272,299)"/>
<path d="M0 0 C1.32 0 2.64 0 4 0 C4 1.32 4 2.64 4 4 C5.32 4.66 6.64 5.32 8 6 C7.01 6.33 6.02 6.66 5 7 C2.3125 5.25 2.3125 5.25 0 3 C0 2.01 0 1.02 0 0 Z " fill="#FCA751" transform="translate(328,246)"/>
<path d="M0 0 C1.10844919 3.32534757 0.84454356 5.62182575 0 9 C-0.99 9 -1.98 9 -3 9 C-3.66 10.32 -4.32 11.64 -5 13 C-5 11.35 -5 9.7 -5 8 C-3.68 7.67 -2.36 7.34 -1 7 C-1.20625 6.401875 -1.4125 5.80375 -1.625 5.1875 C-2 3 -2 3 0 0 Z " fill="#FBDA5A" transform="translate(84,181)"/>
<path d="M0 0 C2.125 0.9375 2.125 0.9375 4 2 C3.67 3.32 3.34 4.64 3 6 C0.525 5.01 0.525 5.01 -2 4 C-2 3.01 -2 2.02 -2 1 C-1.34 0.67 -0.68 0.34 0 0 Z " fill="#F59A53" transform="translate(403,138)"/>
<path d="M0 0 C1.95979427 0.28168297 3.91782378 0.57566717 5.875 0.875 C7.51082031 1.11863281 7.51082031 1.11863281 9.1796875 1.3671875 C12 2 12 2 14 4 C13.01 4.33 12.02 4.66 11 5 C11 4.34 11 3.68 11 3 C7.7 3 4.4 3 1 3 C0.67 2.01 0.34 1.02 0 0 Z " fill="#EAAF68" transform="translate(297,74)"/>
<path d="M0 0 C0 3 0 3 -1 6 C-0.67 6.99 -0.34 7.98 0 9 C-1.98 8.34 -3.96 7.68 -6 7 C-6 6.34 -6 5.68 -6 5 C-4.04072937 3.2856382 -2.04119788 1.61594832 0 0 Z " fill="#E38F5F" transform="translate(176,254)"/>
<path d="M0 0 C0.66 0.33 1.32 0.66 2 1 C0.75803878 2.15454162 -0.49392845 3.29832562 -1.75 4.4375 C-2.79414063 5.39462891 -2.79414063 5.39462891 -3.859375 6.37109375 C-5.98792725 7.99081325 -7.39023405 8.58267256 -10 9 C-6.83047153 5.73991357 -3.60062011 2.77762123 0 0 Z " fill="#ECCC74" transform="translate(145,105)"/>
<path d="M0 0 C3.16115776 1.36983503 3.9927092 1.9890638 6 5 C5.67 5.99 5.34 6.98 5 8 C4.38125 7.360625 3.7625 6.72125 3.125 6.0625 C1.17402388 3.96116416 1.17402388 3.96116416 -1 3 C-0.67 2.01 -0.34 1.02 0 0 Z " fill="#FBCA57" transform="translate(160,424)"/>
<path d="M0 0 C-1.32 1.65 -2.64 3.3 -4 5 C-5.32 4.67 -6.64 4.34 -8 4 C-8 3.01 -8 2.02 -8 1 C-5.29120665 -0.35439668 -2.99066732 -0.06501451 0 0 Z " fill="#F8C85C" transform="translate(174,91)"/>
<path d="M0 0 C0.99 0.33 1.98 0.66 3 1 C3 1.99 3 2.98 3 4 C1.02 4.33 -0.96 4.66 -3 5 C-1.125 1.125 -1.125 1.125 0 0 Z " fill="#FBD75A" transform="translate(93,164)"/>
<path d="M0 0 C1.32 0 2.64 0 4 0 C4 0.66 4 1.32 4 2 C4.66 2.33 5.32 2.66 6 3 C4.02 3.99 4.02 3.99 2 5 C1.34 4.34 0.68 3.68 0 3 C0 2.01 0 1.02 0 0 Z " fill="#FCCD53" transform="translate(132,406)"/>
<path d="M0 0 C0.66 0.33 1.32 0.66 2 1 C2 2.32 2 3.64 2 5 C0.35 5.33 -1.3 5.66 -3 6 C-3 3 -3 3 -1.5 1.3125 C-0.7575 0.6628125 -0.7575 0.6628125 0 0 Z " fill="#FA984F" transform="translate(414,368)"/>
<path d="M0 0 C0.99 0.33 1.98 0.66 3 1 C3.8125 2.8125 3.8125 2.8125 4 5 C3.0625 7.25 3.0625 7.25 2 9 C-0.04698414 6.95301586 0.29954307 2.69588759 0 0 Z " fill="#FDDB5F" transform="translate(75,322)"/>
<path d="M0 0 C0.33 0 0.66 0 1 0 C0.95875 1.0725 0.9175 2.145 0.875 3.25 C0.9885825 6.65747485 1.21273364 8.20739631 3 11 C2.01 10.67 1.02 10.34 0 10 C-1.49106457 7.01787087 -1.11941467 4.28390342 -1 1 C-0.67 0.67 -0.34 0.34 0 0 Z " fill="#F59B46" transform="translate(103,292)"/>
<path d="M0 0 C1.66611905 -0.042721 3.33382885 -0.04063832 5 0 C5.33 0.33 5.66 0.66 6 1 C7.34747084 1.23075082 8.70377565 1.41153063 10.0625 1.5625 C11.361875 1.706875 12.66125 1.85125 14 2 C14 2.33 14 2.66 14 3 C12.41705218 3.05437607 10.83355744 3.09296271 9.25 3.125 C8.36828125 3.14820313 7.4865625 3.17140625 6.578125 3.1953125 C3.8864142 2.99139502 2.30095026 2.36551721 0 1 C0 0.67 0 0.34 0 0 Z " fill="#3A1A33" transform="translate(390,297)"/>
<path d="M0 0 C0.33 0 0.66 0 1 0 C2.42857143 8.42857143 2.42857143 8.42857143 0 13 C-0.33 13 -0.66 13 -1 13 C-0.67 8.71 -0.34 4.42 0 0 Z " fill="#F69945" transform="translate(106,266)"/>
<path d="M0 0 C2 3.75 2 3.75 2 6 C1.34 6 0.68 6 0 6 C0 7.98 0 9.96 0 12 C-0.66 12 -1.32 12 -2 12 C-1 3.42857143 -1 3.42857143 0 0 Z " fill="#D59D6D" transform="translate(267,265)"/>
<path d="M0 0 C1.98 0 3.96 0 6 0 C6 2.64 6 5.28 6 8 C3.87961365 5.38485683 1.86908256 2.80362384 0 0 Z " fill="#E39E65" transform="translate(331,252)"/>
<path d="M0 0 C1.32 0.33 2.64 0.66 4 1 C4 1.66 4 2.32 4 3 C4.66 3.33 5.32 3.66 6 4 C4.35 4.33 2.7 4.66 1 5 C0.67 3.35 0.34 1.7 0 0 Z " fill="#FCA248" transform="translate(371,263)"/>
<path d="M0 0 C2.49505962 2.49505962 2.35948376 3.67328888 2.625 7.125 C2.69976562 8.03507812 2.77453125 8.94515625 2.8515625 9.8828125 C2.92503906 10.93082031 2.92503906 10.93082031 3 12 C2.690625 11.360625 2.38125 10.72125 2.0625 10.0625 C1.1654837 8.06389179 1.1654837 8.06389179 0 7 C-0.04092937 4.66702567 -0.04241723 2.33294775 0 0 Z " fill="#321E37" transform="translate(245,252)"/>
<path d="M0 0 C1 3 1 3 -0.25 5.5625 C-2 8 -2 8 -5 10 C-3.66511872 6.40608886 -2.03977277 3.24509304 0 0 Z " fill="#EFD679" transform="translate(95,157)"/>
<path d="M0 0 C2 0 2 0 3.5625 1.0625 C5.64056847 3.86337489 5.67810527 6.58791584 6 10 C3.25722422 6.80009492 1.3697164 3.99500618 0 0 Z " fill="#F1DA78" transform="translate(86,353)"/>
<path d="M0 0 C0.33 0 0.66 0 1 0 C1.25 6.625 1.25 6.625 -1 10 C-2.25 3.375 -2.25 3.375 0 0 Z " fill="#FEC75B" transform="translate(108,246)"/>
<path d="M0 0 C0.66 0.33 1.32 0.66 2 1 C1.67 1.99 1.34 2.98 1 4 C-1.31 4 -3.62 4 -6 4 C-3.94766315 1.7522025 -2.99332739 0.9977758 0 0 Z " fill="#FBBF57" transform="translate(230,449)"/>
<path d="M0 0 C0.66 0 1.32 0 2 0 C2.66 1.32 3.32 2.64 4 4 C1.125 4.125 1.125 4.125 -2 4 C-2.66 3.34 -3.32 2.68 -4 2 C-2.68 2 -1.36 2 0 2 C0 1.34 0 0.68 0 0 Z " fill="#F8C565" transform="translate(176,434)"/>
<path d="M0 0 C0.99 0.33 1.98 0.66 3 1 C2.67 1.99 2.34 2.98 2 4 C0.02 4 -1.96 4 -4 4 C-3.34 3.67 -2.68 3.34 -2 3 C-2 2.34 -2 1.68 -2 1 C-1.34 0.67 -0.68 0.34 0 0 Z " fill="#F6A155" transform="translate(367,417)"/>
<path d="M0 0 C0.66 0 1.32 0 2 0 C4.125 4.625 4.125 4.625 3 8 C0.9375 6.25 0.9375 6.25 -1 4 C-0.75 1.75 -0.75 1.75 0 0 Z " fill="#FDD556" transform="translate(108,380)"/>
<path d="M0 0 C2.76223278 2.76223278 2.57856291 5.20706617 3 9 C2.01 8.34 1.02 7.68 0 7 C-0.1875 3.375 -0.1875 3.375 0 0 Z " fill="#E0A66F" transform="translate(243,290)"/>
<path d="M0 0 C0.99 0.33 1.98 0.66 3 1 C2.67 2.98 2.34 4.96 2 7 C0.35 5.35 -1.3 3.7 -3 2 C-2.01 2 -1.02 2 0 2 C0 1.34 0 0.68 0 0 Z " fill="#25123E" transform="translate(323,257)"/>
<path d="M0 0 C0 0.66 0 1.32 0 2 C-2.64 2.66 -5.28 3.32 -8 4 C-8 3.01 -8 2.02 -8 1 C-2.25 0 -2.25 0 0 0 Z " fill="#FEC65C" transform="translate(152,196)"/>
<path d="M0 0 C2.475 0.99 2.475 0.99 5 2 C5 3.32 5 4.64 5 6 C4.34 5.67 3.68 5.34 3 5 C2.01 5 1.02 5 0 5 C0 3.35 0 1.7 0 0 Z " fill="#FA954F" transform="translate(426,177)"/>
</svg>
